<svg width="902" height="356" viewBox="0 0 902 356" fill="none" xmlns="http://www.w3.org/2000/svg">
    <rect x="757.345" y="265.594" width="148.894" height="3.21932" transform="rotate(-90 757.345 265.594)" fill="url(#paint0_linear_866_4428)"/>
    <rect x="51.5107" y="225.352" width="5.63381" height="5.63381" transform="rotate(-90 51.5107 225.352)" fill="#C6B2EF"/>
    <rect width="5.63381" height="5.63381" transform="matrix(0 1 1 0 45.8752 214.084)" fill="#C6B2EF"/>
    <rect x="57.1426" y="214.084" width="5.63381" height="5.63381" transform="rotate(-180 57.1426 214.084)" fill="#C6B2EF"/>
    <rect x="57.1426" y="219.719" width="5.63381" height="5.63381" transform="rotate(-90 57.1426 219.719)" fill="#C6B2EF"/>
    <rect x="280.079" y="73.2383" width="3.21932" height="3.21932" transform="rotate(-90 280.079 73.2383)" fill="#C6B2EF"/>
    <rect width="3.21932" height="3.21932" transform="matrix(0 1 1 0 276.86 66.7988)" fill="#C6B2EF"/>
    <rect x="283.297" y="66.7988" width="3.21932" height="3.21932" transform="rotate(-180 283.297 66.7988)" fill="#C6B2EF"/>
    <rect x="283.297" y="70.0195" width="3.21932" height="3.21932" transform="rotate(-90 283.297 70.0195)" fill="#C6B2EF"/>
    <rect x="342.854" y="171.428" width="3.21932" height="3.21932" transform="rotate(-90 342.854 171.428)" fill="#C6B2EF"/>
    <rect width="3.21932" height="3.21932" transform="matrix(0 1 1 0 339.635 164.988)" fill="#C6B2EF"/>
    <rect x="346.073" y="164.988" width="3.21932" height="3.21932" transform="rotate(-180 346.073 164.988)" fill="#C6B2EF"/>
    <rect x="346.073" y="168.209" width="3.21932" height="3.21932" transform="rotate(-90 346.073 168.209)" fill="#C6B2EF"/>
    <rect x="618.114" y="124.748" width="4.02415" height="4.02415" transform="rotate(-90 618.114 124.748)" fill="#DFD4F6"/>
    <rect width="4.02415" height="4.02415" transform="matrix(0 1 1 0 614.089 116.699)" fill="#DFD4F6"/>
    <rect x="622.138" y="116.699" width="4.02415" height="4.02415" transform="rotate(-180 622.138 116.699)" fill="#DFD4F6"/>
    <rect x="622.138" y="120.725" width="4.02415" height="4.02415" transform="rotate(-90 622.138 120.725)" fill="#DFD4F6"/>
    <rect width="3.21932" height="3.21932" transform="matrix(0 1 1 0 213 352.221)" fill="#C6B2EF"/>
    <rect x="219.438" y="352.221" width="3.21932" height="3.21932" transform="rotate(-180 219.438 352.221)" fill="#C6B2EF"/>
    <rect x="219.438" y="355.439" width="3.21932" height="3.21932" transform="rotate(-90 219.438 355.439)" fill="#C6B2EF"/>
    <rect x="310.702" y="239.84" width="5.63381" height="5.63381" transform="rotate(-90 310.702 239.84)" fill="#C6B2EF"/>
    <rect width="5.63381" height="5.63381" transform="matrix(0 1 1 0 305.066 228.572)" fill="#C6B2EF"/>
    <rect x="316.334" y="228.572" width="5.63381" height="5.63381" transform="rotate(-180 316.334 228.572)" fill="#C6B2EF"/>
    <rect x="316.334" y="234.207" width="5.63381" height="5.63381" transform="rotate(-90 316.334 234.207)" fill="#C6B2EF"/>
    <rect x="416.902" y="78.0684" width="5.63381" height="5.63381" transform="rotate(-90 416.902 78.0684)" fill="#C6B2EF"/>
    <rect width="5.63381" height="5.63381" transform="matrix(0 1 1 0 411.266 66.8008)" fill="#C6B2EF"/>
    <rect x="422.534" y="66.8008" width="5.63381" height="5.63381" transform="rotate(-180 422.534 66.8008)" fill="#C6B2EF"/>
    <rect x="422.534" y="72.4355" width="5.63381" height="5.63381" transform="rotate(-90 422.534 72.4355)" fill="#C6B2EF"/>
    <rect x="688.131" y="136.82" width="5.63381" height="5.63381" transform="rotate(-90 688.131 136.82)" fill="#C6B2EF"/>
    <rect width="5.63381" height="5.63381" transform="matrix(0 1 1 0 682.496 125.553)" fill="#C6B2EF"/>
    <rect x="693.763" y="125.553" width="5.63381" height="5.63381" transform="rotate(-180 693.763 125.553)" fill="#C6B2EF"/>
    <rect x="693.763" y="131.188" width="5.63381" height="5.63381" transform="rotate(-90 693.763 131.188)" fill="#C6B2EF"/>
    <rect x="763.782" y="345.271" width="4.82898" height="4.82898" transform="rotate(-90 763.782 345.271)" fill="#C6B2EF"/>
    <rect width="4.82898" height="4.82898" transform="matrix(0 1 1 0 758.952 335.613)" fill="#C6B2EF"/>
    <rect x="768.608" y="335.613" width="4.82898" height="4.82898" transform="rotate(-180 768.608 335.613)" fill="#C6B2EF"/>
    <rect x="768.608" y="340.443" width="4.82898" height="4.82898" transform="rotate(-90 768.608 340.443)" fill="#C6B2EF"/>
    <rect x="845.073" y="247.082" width="4.02415" height="4.02415" transform="rotate(-90 845.073 247.082)" fill="#C6B2EF"/>
    <rect width="4.02415" height="4.02415" transform="matrix(0 1 1 0 841.049 239.033)" fill="#C6B2EF"/>
    <rect x="849.097" y="239.033" width="4.02415" height="4.02415" transform="rotate(-180 849.097 239.033)" fill="#C6B2EF"/>
    <rect x="849.097" y="243.059" width="4.02415" height="4.02415" transform="rotate(-90 849.097 243.059)" fill="#C6B2EF"/>
    <rect x="754.127" y="173.842" width="3.21932" height="3.21932" transform="rotate(-90 754.127 173.842)" fill="#C6B2EF"/>
    <rect width="3.21932" height="3.21932" transform="matrix(0 1 1 0 750.908 167.402)" fill="#C6B2EF"/>
    <rect x="757.346" y="167.402" width="3.21932" height="3.21932" transform="rotate(-180 757.346 167.402)" fill="#C6B2EF"/>
    <rect x="757.346" y="170.623" width="3.21932" height="3.21932" transform="rotate(-90 757.346 170.623)" fill="#C6B2EF"/>
    <rect width="2.41449" height="2.41449" transform="matrix(0 1 1 0 736.417 198.793)" fill="#C6B2EF"/>
    <rect x="741.247" y="198.793" width="2.41449" height="2.41449" transform="rotate(-180 741.247 198.793)" fill="#C6B2EF"/>
    <rect x="674.45" y="57.9473" width="5.63381" height="5.63381" transform="rotate(-90 674.45 57.9473)" fill="#C6B2EF"/>
    <rect width="5.63381" height="5.63381" transform="matrix(0 1 1 0 668.814 46.6797)" fill="#C6B2EF"/>
    <rect x="680.082" y="46.6797" width="5.63381" height="5.63381" transform="rotate(-180 680.082 46.6797)" fill="#C6B2EF"/>
    <rect x="680.082" y="52.3145" width="5.63381" height="5.63381" transform="rotate(-90 680.082 52.3145)" fill="#C6B2EF"/>
    <rect x="49.8994" y="305.834" width="23.3401" height="3.21932" transform="rotate(-90 49.8994 305.834)" fill="url(#paint1_linear_866_4428)"/>
    <rect x="844.265" y="300.201" width="23.3401" height="3.21932" transform="rotate(-90 844.265 300.201)" fill="url(#paint2_linear_866_4428)"/>
    <rect x="109.458" y="343.662" width="30.5835" height="3.21932" transform="rotate(-90 109.458 343.662)" fill="url(#paint3_linear_866_4428)"/>
    <rect width="5.63381" height="5.63381" transform="matrix(0 1 1 0 57.1423 236.619)" fill="#D8CCF4"/>
    <rect width="7.24347" height="7.24347" transform="matrix(0 1 1 0 202.011 90.9453)" fill="#D8CCF4"/>
    <rect width="2.41449" height="2.41449" transform="matrix(0 1 1 0 405.636 23.3398)" fill="#D8CCF4"/>
    <rect width="2.41449" height="2.41449" transform="matrix(0 1 1 0 313.882 126.357)" fill="#D8CCF4"/>
    <rect width="2.41449" height="2.41449" transform="matrix(0 1 1 0 382.296 155.332)" fill="#D8CCF4"/>
    <rect width="2.41449" height="2.41449" transform="matrix(0 1 1 0 387.122 24.9492)" fill="#D8CCF4"/>
    <rect width="2.41449" height="2.41449" transform="matrix(0 1 1 0 518.31 174.646)" fill="#D8CCF4"/>
    <rect width="2.41449" height="2.41449" transform="matrix(0 1 1 0 615.695 61.166)" fill="#D8CCF4"/>
    <rect width="2.41449" height="2.41449" transform="matrix(0 1 1 0 621.327 130.381)" fill="#D8CCF4"/>
    <rect width="4.82898" height="4.82898" transform="matrix(0 1 1 0 399.195 17.7051)" fill="#D8CCF4"/>
    <rect width="4.82898" height="4.82898" transform="matrix(0 1 1 0 548.893 101.408)" fill="#D8CCF4"/>
    <rect width="4.82898" height="4.82898" transform="matrix(0 1 1 0 564.99 95.7734)" fill="#D8CCF4"/>
    <rect width="3.21932" height="3.21932" transform="matrix(0 1 1 0 581.088 41.8496)" fill="#D8CCF4"/>
    <rect width="4.82898" height="4.82898" transform="matrix(0 1 1 0 571.428 130.381)" fill="#D8CCF4"/>
    <rect width="7.24347" height="7.24347" transform="matrix(0 1 1 0 156.16 325.955)" fill="#D8CCF4"/>
    <rect width="7.24347" height="7.24347" transform="matrix(0 1 1 0 260.764 76.457)" fill="#D8CCF4"/>
    <rect x="112.677" y="333.199" width="3.21932" height="3.21932" transform="rotate(-180 112.677 333.199)" fill="#C6B2EF"/>
    <rect x="92.5535" y="315.49" width="3.21932" height="3.21932" transform="rotate(-180 92.5535 315.49)" fill="#C6B2EF"/>
    <rect x="95.7722" y="318.711" width="3.21932" height="3.21932" transform="rotate(-180 95.7722 318.711)" fill="#C6B2EF"/>
    <rect x="89.3347" y="318.711" width="3.21932" height="3.21932" transform="rotate(-180 89.3347 318.711)" fill="#C6B2EF"/>
    <rect x="92.5535" y="321.93" width="3.21932" height="3.21932" transform="rotate(-180 92.5535 321.93)" fill="#C6B2EF"/>
    <circle cx="72.4355" cy="310.664" r="2.41449" transform="rotate(-90 72.4355 310.664)" fill="#9B89FF"/>
    <circle cx="875.655" cy="317.103" r="2.41449" transform="rotate(-90 875.655 317.103)" fill="#9B89FF"/>
    <circle cx="193.963" cy="191.548" r="2.41449" transform="rotate(-90 193.963 191.548)" fill="#9B89FF"/>
    <circle cx="222.939" cy="105.433" r="2.41449" transform="rotate(-90 222.939 105.433)" fill="#9B89FF"/>
    <ellipse cx="164.992" cy="202.818" rx="1.60966" ry="1.60966" transform="rotate(-90 164.992 202.818)" fill="#9B89FF"/>
    <ellipse cx="168.21" cy="143.259" rx="1.60966" ry="1.60966" transform="rotate(-90 168.21 143.259)" fill="#9B89FF"/>
    <ellipse cx="202.013" cy="177.062" rx="1.60966" ry="1.60966" transform="rotate(-90 202.013 177.062)" fill="#9B89FF"/>
    <ellipse cx="306.641" cy="118.31" rx="1.60966" ry="1.60966" transform="rotate(-90 306.641 118.31)" fill="#9B89FF"/>
    <ellipse cx="383.1" cy="87.7263" rx="1.60966" ry="1.60966" transform="rotate(-90 383.1 87.7263)" fill="#9B89FF"/>
    <ellipse cx="429.78" cy="79.6775" rx="1.60966" ry="1.60966" transform="rotate(-90 429.78 79.6775)" fill="#9B89FF"/>
    <ellipse cx="478.874" cy="70.0192" rx="1.60966" ry="1.60966" transform="rotate(-90 478.874 70.0192)" fill="#9B89FF"/>
    <ellipse cx="483.704" cy="76.4567" rx="1.60966" ry="1.60966" transform="rotate(-90 483.704 76.4567)" fill="#9B89FF"/>
    <ellipse cx="540.846" cy="235.816" rx="1.60966" ry="1.60966" transform="rotate(-90 540.846 235.816)" fill="#9B89FF"/>
    <ellipse cx="515.09" cy="98.1892" rx="1.60966" ry="1.60966" transform="rotate(-90 515.09 98.1892)" fill="#9B89FF"/>
    <ellipse cx="490.947" cy="28.9724" rx="1.60966" ry="1.60966" transform="rotate(-90 490.947 28.9724)" fill="#9B89FF"/>
    <ellipse cx="552.114" cy="247.084" rx="1.60966" ry="1.60966" transform="rotate(-90 552.114 247.084)" fill="#9B89FF"/>
    <ellipse cx="569.013" cy="222.133" rx="1.60966" ry="1.60966" transform="rotate(-90 569.013 222.133)" fill="#9B89FF"/>
    <ellipse cx="324.346" cy="93.361" rx="1.60966" ry="1.60966" transform="rotate(-90 324.346 93.361)" fill="#9B89FF"/>
    <circle cx="76.4597" cy="217.304" r="2.41449" transform="rotate(-90 76.4597 217.304)" fill="#9B89FF"/>
    <circle cx="324.346" cy="216.498" r="2.41449" transform="rotate(-90 324.346 216.498)" fill="#9B89FF"/>
    <circle cx="301.811" cy="127.966" r="2.41449" transform="rotate(-90 301.811 127.966)" fill="#9B89FF"/>
    <circle cx="362.172" cy="142.455" r="2.41449" transform="rotate(-90 362.172 142.455)" fill="#9B89FF"/>
    <circle cx="502.214" cy="155.332" r="2.41449" transform="rotate(-90 502.214 155.332)" fill="#9B89FF"/>
    <circle cx="564.992" cy="186.72" r="2.41449" transform="rotate(-90 564.992 186.72)" fill="#9B89FF"/>
    <circle cx="666.398" cy="32.1929" r="2.41449" transform="rotate(-90 666.398 32.1929)" fill="#9B89FF"/>
    <circle cx="630.988" cy="168.246" r="2.41449" transform="rotate(-90 630.988 168.246)" fill="#9B89FF"/>
    <ellipse cx="750.906" cy="144.869" rx="1.60966" ry="1.60966" transform="rotate(-90 750.906 144.869)" fill="#9B89FF"/>
    <ellipse cx="818.514" cy="170.623" rx="1.60966" ry="1.60966" transform="rotate(-90 818.514 170.623)" fill="#9B89FF"/>
    <ellipse cx="809.659" cy="194.769" rx="1.60966" ry="1.60966" transform="rotate(-90 809.659 194.769)" fill="#9B89FF"/>
    <ellipse cx="790.344" cy="277.666" rx="1.60966" ry="1.60966" transform="rotate(-90 790.344 277.666)" fill="#9B89FF"/>
    <ellipse cx="769.416" cy="325.957" rx="1.60966" ry="1.60966" transform="rotate(-90 769.416 325.957)" fill="#9B89FF"/>
    <circle cx="786.318" cy="148.892" r="2.41449" transform="rotate(-90 786.318 148.892)" fill="#9B89FF"/>
    <circle cx="795.978" cy="104.627" r="2.41449" transform="rotate(-90 795.978 104.627)" fill="#9B89FF"/>
    <ellipse cx="78.8736" cy="270.424" rx="1.60966" ry="1.60966" transform="rotate(-90 78.8736 270.424)" fill="#9B89FF"/>
    <ellipse cx="70.0196" cy="197.183" rx="1.60966" ry="1.60966" transform="rotate(-90 70.0196 197.183)" fill="#9B89FF"/>
    <ellipse cx="29.7798" cy="288.933" rx="1.60966" ry="1.60966" transform="rotate(-90 29.7798 288.933)" fill="#9B89FF"/>
    <ellipse cx="833" cy="295.373" rx="1.60966" ry="1.60966" transform="rotate(-90 833 295.373)" fill="#9B89FF"/>
    <ellipse cx="61.1687" cy="299.396" rx="1.60966" ry="1.60966" transform="rotate(-90 61.1687 299.396)" fill="#9B89FF"/>
    <ellipse cx="821.732" cy="329.176" rx="1.60966" ry="1.60966" transform="rotate(-90 821.732 329.176)" fill="#9B89FF"/>
    <rect x="325.955" y="192.354" width="148.894" height="4.82898" transform="rotate(-90 325.955 192.354)" fill="url(#paint4_linear_866_4428)"/>
    <rect x="457.143" y="78.0664" width="61.1671" height="4.82898" transform="rotate(-90 457.143 78.0664)" fill="url(#paint5_linear_866_4428)"/>
    <rect x="581.088" y="150.504" width="100.604" height="3.21932" transform="rotate(-90 581.088 150.504)" fill="url(#paint6_linear_866_4428)"/>
    <rect x="589.942" y="152.916" width="44.2657" height="1.60966" transform="rotate(-90 589.942 152.916)" fill="url(#paint7_linear_866_4428)"/>
    <rect x="335.615" y="192.354" width="86.9217" height="2.41449" transform="rotate(-90 335.615 192.354)" fill="url(#paint8_linear_866_4428)"/>
    <rect x="521.529" y="179.477" width="179.477" height="4.82898" transform="rotate(-90 521.529 179.477)" fill="url(#paint9_linear_866_4428)"/>
    <rect x="118.309" y="287.324" width="86.9217" height="2.41449" transform="rotate(-90 118.309 287.324)" fill="url(#paint10_linear_866_4428)"/>
    <rect x="828.973" y="189.939" width="2.41449" height="2.41449" transform="rotate(-90 828.973 189.939)" fill="#C6B2EF"/>
    <rect x="822.536" y="217.303" width="2.41449" height="2.41449" transform="rotate(-90 822.536 217.303)" fill="#C6B2EF"/>
    <rect x="791.953" y="289.738" width="2.41449" height="2.41449" transform="rotate(-90 791.953 289.738)" fill="#C6B2EF"/>
    <rect x="729.98" y="293.762" width="4.02415" height="4.02415" transform="rotate(-90 729.98 293.762)" fill="#C6B2EF"/>
    <rect x="780.685" y="231.789" width="5.63381" height="5.63381" transform="rotate(-90 780.685 231.789)" fill="#E4D9F7"/>
    <rect width="8.0483" height="8.0483" transform="matrix(0 -1 -1 0 233.399 171.428)" fill="#E2D9F8"/>
    <rect x="241.447" y="155.33" width="8.0483" height="8.0483" transform="rotate(90 241.447 155.33)" fill="#D3C6F2"/>
    <rect width="8.0483" height="8.0483" transform="matrix(1 0 0 -1 225.35 155.33)" fill="#E2D9F8"/>
    <ellipse cx="650.302" cy="94.9704" rx="1.60966" ry="1.60966" transform="rotate(-90 650.302 94.9704)" fill="#9B89FF"/>
    <ellipse cx="745.219" cy="325.22" rx="3.21932" ry="3.21932" transform="rotate(-90 745.219 325.22)" fill="#9B89FF"/>
    <rect x="144.601" y="106.035" width="10.1945" height="10.1945" transform="rotate(-90 144.601 106.035)" fill="url(#paint11_linear_866_4428)"/>
    <rect width="10.1945" height="10.1945" transform="matrix(0 1 1 0 134.407 85.6465)" fill="url(#paint12_linear_866_4428)"/>
    <rect x="154.796" y="85.6465" width="10.1945" height="10.1945" transform="rotate(-180 154.796 85.6465)" fill="url(#paint13_linear_866_4428)"/>
    <rect x="144.601" y="95.8398" width="10.1945" height="10.1945" transform="rotate(-90 144.601 95.8398)" fill="url(#paint14_linear_866_4428)"/>
    <rect x="154.796" y="95.8398" width="10.1945" height="10.1945" transform="rotate(-90 154.796 95.8398)" fill="url(#paint15_linear_866_4428)"/>
    <rect x="597.186" y="110.262" width="6.43864" height="6.43864" transform="rotate(-90 597.186 110.262)" fill="url(#paint16_linear_866_4428)"/>
    <rect width="6.43864" height="6.43864" transform="matrix(0 1 1 0 590.749 97.3848)" fill="url(#paint17_linear_866_4428)"/>
    <rect x="603.627" y="97.3848" width="6.43864" height="6.43864" transform="rotate(-180 603.627 97.3848)" fill="url(#paint18_linear_866_4428)"/>
    <rect x="597.186" y="103.822" width="6.43864" height="6.43864" transform="rotate(-90 597.186 103.822)" fill="url(#paint19_linear_866_4428)"/>
    <rect x="603.627" y="103.822" width="6.43864" height="6.43864" transform="rotate(-90 603.627 103.822)" fill="url(#paint20_linear_866_4428)"/>
    <g opacity="0.6">
        <rect x="891.754" y="297.785" width="4.82898" height="4.82898" transform="rotate(-90 891.754 297.785)" fill="url(#paint21_linear_866_4428)"/>
        <rect width="4.82898" height="4.82898" transform="matrix(0 1 1 0 886.924 288.127)" fill="url(#paint22_linear_866_4428)"/>
        <rect x="896.58" y="288.127" width="4.82898" height="4.82898" transform="rotate(-180 896.58 288.127)" fill="url(#paint23_linear_866_4428)"/>
        <rect x="891.754" y="292.957" width="4.82898" height="4.82898" transform="rotate(-90 891.754 292.957)" fill="url(#paint24_linear_866_4428)"/>
        <rect x="896.58" y="292.957" width="4.82898" height="4.82898" transform="rotate(-90 896.58 292.957)" fill="url(#paint25_linear_866_4428)"/>
    </g>
    <g opacity="0.5">
        <rect x="714.691" y="146.48" width="4.82873" height="4.82873" transform="rotate(-180 714.691 146.48)" fill="url(#paint26_linear_866_4428)"/>
        <rect x="714.691" y="151.309" width="4.82873" height="4.82873" transform="rotate(-90 714.691 151.309)" fill="url(#paint27_linear_866_4428)"/>
    </g>
    <rect x="709.681" y="248.145" width="13.6826" height="13.6826" transform="rotate(-90 709.681 248.145)" fill="url(#paint28_linear_866_4428)"/>
    <rect width="13.6826" height="13.6826" transform="matrix(0 1 1 0 696 220.777)" fill="url(#paint29_linear_866_4428)"/>
    <rect x="723.365" y="220.777" width="13.6826" height="13.6826" transform="rotate(-180 723.365 220.777)" fill="url(#paint30_linear_866_4428)"/>
    <rect x="709.681" y="234.463" width="13.6826" height="13.6826" transform="rotate(-90 709.681 234.463)" fill="url(#paint31_linear_866_4428)"/>
    <rect x="723.365" y="234.463" width="13.6826" height="13.6826" transform="rotate(-90 723.365 234.463)" fill="url(#paint32_linear_866_4428)"/>
    <rect x="109.458" y="263.984" width="111.871" height="6.43864" transform="rotate(-90 109.458 263.984)" fill="url(#paint33_linear_866_4428)"/>
    <rect width="7.24347" height="7.24347" transform="matrix(0 1 1 0 102.212 171.428)" fill="#D8CCF4"/>
    <rect x="168.889" y="248.889" width="21.3334" height="21.3334" transform="rotate(-90 168.889 248.889)" fill="url(#paint34_linear_866_4428)"/>
    <rect x="509.459" y="198.793" width="14.4869" height="14.4869" transform="rotate(-90 509.459 198.793)" fill="url(#paint35_linear_866_4428)"/>
    <rect x="293.764" y="28.168" width="11.2676" height="11.2676" transform="rotate(-90 293.764 28.168)" fill="url(#paint36_linear_866_4428)"/>
    <rect x="597.99" y="144.869" width="12.8773" height="12.8773" transform="rotate(-90 597.99 144.869)" fill="url(#paint37_linear_866_4428)"/>
    <rect y="305.029" width="8.0483" height="8.0483" transform="rotate(-90 0 305.029)" fill="url(#paint38_linear_866_4428)" fill-opacity="0.5"/>
    <rect width="2.41449" height="2.41449" transform="matrix(0 1 1 0 590.744 116.699)" fill="#D8CCF4"/>
    <rect x="730.607" y="260.215" width="69.2154" height="3.21932" transform="rotate(-90 730.607 260.215)" fill="url(#paint39_linear_866_4428)" fill-opacity="0.2"/>
    <rect x="518.313" y="20.1191" width="4.02415" height="4.02415" transform="rotate(-90 518.313 20.1191)" fill="#C6B2EF"/>
    <rect width="4.02415" height="4.02415" transform="matrix(0 1 1 0 514.289 12.0703)" fill="#C6B2EF"/>
    <rect x="522.337" y="12.0703" width="4.02415" height="4.02415" transform="rotate(-180 522.337 12.0703)" fill="#C6B2EF"/>
    <rect x="522.337" y="16.0957" width="4.02415" height="4.02415" transform="rotate(-90 522.337 16.0957)" fill="#C6B2EF"/>
    <path d="M145.648 319.892C145.954 320.147 146.355 320.654 146.508 321.184C146.569 321.397 146.609 322.22 146.65 323.36L146.749 326.211C146.823 328.34 146.871 329.494 146.952 330.239C147.034 330.961 147.146 331.302 147.346 331.774C147.907 333.093 148.766 333.999 149.988 334.556C150.759 334.905 151.425 335.025 153.3 335.148C156.132 335.335 156.984 335.541 157.375 336.132C157.548 336.395 157.646 336.764 157.663 337.134C157.687 337.577 157.592 338.019 157.375 338.274C156.845 338.896 155.537 339.097 153.3 339.267C152.029 339.365 151.391 339.45 150.797 339.649C150.535 339.736 150.284 339.848 149.988 339.991C146.983 341.467 146.596 343.962 146.569 349.411C146.565 350.354 146.491 351.727 146.406 352.459C146.321 353.194 146.246 353.57 146.076 353.871C145.985 354.034 145.866 354.176 145.699 354.341C145.407 354.631 145.2 354.775 144.908 354.841C144.755 354.874 144.582 354.888 144.351 354.89C143.672 354.89 143.424 354.792 142.969 354.341C142.684 354.058 142.534 353.844 142.429 353.466C142.361 353.221 142.314 352.908 142.263 352.46C142.178 351.727 142.103 350.355 142.1 349.411C142.072 343.964 141.685 341.467 138.68 339.991C137.722 339.522 137.203 339.409 135.369 339.269C134.119 339.173 133.158 339.068 132.462 338.886C131.912 338.743 131.528 338.551 131.294 338.276C131.141 338.095 131.049 337.822 131.015 337.522C130.961 337.041 131.056 336.489 131.294 336.132C131.684 335.541 132.537 335.335 135.369 335.15C137.243 335.027 137.909 334.907 138.68 334.556C139.902 334.001 140.762 333.093 141.322 331.774C141.729 330.815 141.774 330.4 141.92 326.213C141.981 324.536 141.998 323.033 142.049 322.098C142.076 321.645 142.11 321.326 142.161 321.184C142.364 320.624 142.595 320.32 143.03 319.889C143.465 319.457 144.453 318.892 145.648 319.892Z" fill="#9C84FC"/>
    <path d="M591.871 238.113C592.177 238.367 592.578 238.875 592.73 239.405C592.792 239.617 592.832 240.441 592.873 241.581L592.972 244.432C593.046 246.561 593.094 247.714 593.175 248.46C593.257 249.182 593.369 249.523 593.569 249.995C594.13 251.314 594.989 252.22 596.211 252.777C596.982 253.126 597.648 253.246 599.522 253.369C602.355 253.556 603.207 253.762 603.598 254.352C603.771 254.615 603.869 254.985 603.886 255.354C603.91 255.798 603.815 256.24 603.598 256.495C603.068 257.117 601.76 257.318 599.522 257.488C598.252 257.586 597.614 257.67 597.02 257.869C596.758 257.957 596.507 258.068 596.211 258.212C593.206 259.688 592.819 262.183 592.792 267.631C592.788 268.574 592.714 269.947 592.629 270.68C592.544 271.415 592.469 271.791 592.299 272.091C592.207 272.255 592.089 272.397 591.922 272.562C591.63 272.852 591.423 272.996 591.131 273.061C590.978 273.095 590.805 273.109 590.574 273.11C589.895 273.11 589.647 273.012 589.192 272.562C588.907 272.279 588.757 272.064 588.652 271.687C588.584 271.442 588.536 271.128 588.486 270.681C588.401 269.947 588.326 268.576 588.322 267.631C588.295 262.184 587.908 259.688 584.903 258.212C583.945 257.743 583.425 257.63 581.592 257.49C580.342 257.394 579.381 257.289 578.685 257.107C578.135 256.964 577.751 256.771 577.516 256.496C577.364 256.316 577.272 256.042 577.238 255.742C577.184 255.261 577.279 254.71 577.516 254.352C577.907 253.762 578.759 253.556 581.592 253.37C583.466 253.247 584.132 253.128 584.903 252.777C586.125 252.222 586.984 251.314 587.545 249.995C587.952 249.035 587.996 248.62 588.143 244.433C588.204 242.757 588.221 241.254 588.272 240.319C588.299 239.865 588.333 239.547 588.384 239.405C588.587 238.845 588.818 238.541 589.253 238.109C589.688 237.678 590.676 237.112 591.871 238.113Z" fill="#9C84FC"/>
    <path d="M504.76 87.0014C505.066 87.2561 505.466 87.7639 505.619 88.2935C505.68 88.5061 505.721 89.3293 505.762 90.4696L505.86 93.3204C505.935 95.4493 505.983 96.6031 506.064 97.3487C506.146 98.0707 506.258 98.4114 506.458 98.8837C507.018 100.203 507.877 101.109 509.1 101.665C509.871 102.015 510.537 102.134 512.411 102.257C515.243 102.445 516.096 102.651 516.486 103.241C516.659 103.504 516.758 103.874 516.775 104.243C516.799 104.687 516.704 105.129 516.486 105.383C515.957 106.006 514.649 106.206 512.411 106.377C511.141 106.475 510.503 106.559 509.908 106.758C509.647 106.846 509.395 106.957 509.1 107.1C506.095 108.577 505.707 111.071 505.68 116.52C505.677 117.463 505.602 118.836 505.517 119.568C505.432 120.304 505.358 120.68 505.188 120.98C505.096 121.144 504.977 121.285 504.811 121.451C504.519 121.741 504.312 121.884 504.02 121.95C503.867 121.984 503.694 121.997 503.463 121.999C502.784 121.999 502.536 121.901 502.081 121.451C501.795 121.167 501.646 120.953 501.541 120.575C501.473 120.331 501.425 120.017 501.374 119.57C501.289 118.836 501.215 117.465 501.211 116.52C501.184 111.073 500.797 108.577 497.791 107.1C496.834 106.632 496.314 106.519 494.48 106.379C493.231 106.282 492.27 106.178 491.573 105.996C491.023 105.852 490.639 105.66 490.405 105.385C490.252 105.204 490.161 104.931 490.127 104.631C490.072 104.15 490.167 103.599 490.405 103.241C490.796 102.651 491.648 102.445 494.48 102.259C496.355 102.136 497.021 102.016 497.791 101.665C499.014 101.11 499.873 100.203 500.433 98.8837C500.841 97.9239 500.885 97.5089 501.031 93.3221C501.092 91.6453 501.109 90.1423 501.16 89.2078C501.187 88.754 501.221 88.4352 501.272 88.2935C501.476 87.7335 501.707 87.4299 502.142 86.998C502.576 86.5662 503.565 86.0011 504.76 87.0014Z" fill="#9C84FC"/>
    <path d="M362.187 73.5159C362.411 73.7006 362.705 74.0687 362.817 74.4527C362.862 74.6068 362.892 75.2036 362.921 76.0304L362.994 78.0972C363.048 79.6406 363.083 80.4771 363.143 81.0177C363.203 81.5411 363.285 81.7882 363.432 82.1306C363.843 83.087 364.473 83.7437 365.37 84.1473C365.935 84.4005 366.423 84.4873 367.798 84.5766C369.875 84.7123 370.5 84.8615 370.786 85.2896C370.913 85.4803 370.985 85.7482 370.998 86.016C371.015 86.3377 370.945 86.6581 370.786 86.8427C370.398 87.294 369.439 87.4396 367.798 87.5631C366.866 87.634 366.398 87.6952 365.962 87.8395C365.77 87.9031 365.586 87.9838 365.37 88.0878C363.166 89.1579 362.882 90.9667 362.862 94.9169C362.859 95.6005 362.804 96.596 362.742 97.1268C362.68 97.66 362.625 97.9328 362.501 98.1505C362.433 98.2691 362.346 98.3718 362.224 98.4917C362.01 98.702 361.858 98.806 361.644 98.8537C361.532 98.8781 361.405 98.8879 361.235 98.8891C360.737 98.8891 360.556 98.8182 360.222 98.4917C360.013 98.2862 359.903 98.1309 359.826 97.8569C359.776 97.6796 359.741 97.4521 359.704 97.128C359.642 96.5961 359.587 95.6018 359.584 94.9169C359.564 90.9679 359.281 89.1579 357.077 88.0878C356.374 87.7478 355.993 87.6658 354.648 87.5643C353.732 87.4946 353.027 87.4188 352.517 87.2867C352.113 87.1827 351.832 87.0433 351.66 86.844C351.548 86.7131 351.481 86.515 351.456 86.2973C351.416 85.9487 351.486 85.5488 351.66 85.2896C351.946 84.8615 352.571 84.7123 354.648 84.5778C356.023 84.4885 356.511 84.4017 357.077 84.1473C357.973 83.7449 358.603 83.087 359.014 82.1306C359.313 81.4347 359.345 81.1339 359.452 78.0984C359.497 76.8828 359.51 75.7931 359.547 75.1156C359.567 74.7866 359.592 74.5554 359.629 74.4527C359.779 74.0467 359.948 73.8265 360.267 73.5135C360.585 73.2004 361.31 72.7907 362.187 73.5159Z" fill="#9C84FC"/>
    <path d="M264.409 180.182C264.633 180.367 264.927 180.735 265.039 181.119C265.084 181.273 265.114 181.87 265.144 182.696L265.216 184.763C265.271 186.307 265.306 187.143 265.365 187.684C265.425 188.207 265.507 188.454 265.654 188.797C266.065 189.753 266.695 190.41 267.592 190.813C268.157 191.066 268.645 191.153 270.02 191.243C272.097 191.378 272.722 191.528 273.008 191.956C273.135 192.146 273.208 192.414 273.22 192.682C273.237 193.004 273.168 193.324 273.008 193.509C272.62 193.96 271.661 194.106 270.02 194.229C269.088 194.3 268.62 194.361 268.184 194.505C267.993 194.569 267.808 194.65 267.592 194.754C265.388 195.824 265.104 197.633 265.084 201.583C265.081 202.267 265.027 203.262 264.964 203.793C264.902 204.326 264.847 204.599 264.723 204.816C264.656 204.935 264.568 205.038 264.446 205.158C264.232 205.368 264.08 205.472 263.866 205.52C263.754 205.544 263.627 205.554 263.458 205.555C262.96 205.555 262.778 205.484 262.444 205.158C262.235 204.952 262.125 204.797 262.048 204.523C261.998 204.346 261.963 204.118 261.926 203.794C261.864 203.262 261.809 202.268 261.807 201.583C261.787 197.634 261.503 195.824 259.299 194.754C258.596 194.414 258.215 194.332 256.871 194.23C255.954 194.161 255.249 194.085 254.739 193.953C254.335 193.849 254.054 193.709 253.882 193.51C253.77 193.379 253.703 193.181 253.678 192.963C253.638 192.615 253.708 192.215 253.882 191.956C254.168 191.528 254.794 191.378 256.871 191.244C258.245 191.155 258.733 191.068 259.299 190.813C260.195 190.411 260.825 189.753 261.236 188.797C261.535 188.101 261.567 187.8 261.675 184.764C261.719 183.549 261.732 182.459 261.769 181.782C261.789 181.453 261.814 181.221 261.851 181.119C262.001 180.713 262.17 180.493 262.489 180.179C262.808 179.866 263.532 179.457 264.409 180.182Z" fill="#9C84FC"/>
    <path d="M809.299 309.959C809.523 310.144 809.817 310.512 809.929 310.896C809.974 311.05 810.003 311.647 810.033 312.474L810.106 314.541C810.16 316.084 810.195 316.92 810.255 317.461C810.315 317.984 810.397 318.232 810.544 318.574C810.955 319.53 811.585 320.187 812.481 320.591C813.047 320.844 813.535 320.931 814.909 321.02C816.986 321.156 817.612 321.305 817.898 321.733C818.025 321.924 818.097 322.192 818.11 322.459C818.127 322.781 818.057 323.101 817.898 323.286C817.509 323.737 816.551 323.883 814.909 324.006C813.978 324.077 813.51 324.139 813.074 324.283C812.882 324.346 812.698 324.427 812.481 324.531C810.277 325.601 809.993 327.41 809.974 331.36C809.971 332.044 809.916 333.039 809.854 333.57C809.792 334.103 809.737 334.376 809.612 334.594C809.545 334.712 809.458 334.815 809.336 334.935C809.122 335.145 808.97 335.249 808.756 335.297C808.644 335.321 808.517 335.331 808.347 335.333C807.849 335.333 807.667 335.262 807.334 334.935C807.125 334.73 807.015 334.574 806.938 334.3C806.888 334.123 806.853 333.895 806.816 333.571C806.753 333.039 806.699 332.045 806.696 331.36C806.676 327.411 806.392 325.601 804.188 324.531C803.486 324.191 803.105 324.109 801.76 324.008C800.844 323.938 800.139 323.862 799.628 323.73C799.225 323.626 798.944 323.487 798.772 323.287C798.66 323.156 798.592 322.958 798.568 322.741C798.528 322.392 798.597 321.992 798.772 321.733C799.058 321.305 799.683 321.156 801.76 321.021C803.135 320.932 803.623 320.845 804.188 320.591C805.085 320.188 805.715 319.53 806.126 318.574C806.425 317.878 806.457 317.577 806.564 314.542C806.609 313.326 806.621 312.236 806.659 311.559C806.679 311.23 806.704 310.999 806.741 310.896C806.89 310.49 807.06 310.27 807.379 309.957C807.697 309.644 808.422 309.234 809.299 309.959Z" fill="#9C84FC"/>
    <path d="M35.0752 287.739C35.2994 287.923 35.5932 288.291 35.7053 288.675C35.7501 288.829 35.78 289.426 35.8099 290.253L35.8821 292.32C35.9369 293.863 35.9718 294.7 36.0315 295.24C36.0913 295.764 36.1735 296.011 36.3204 296.353C36.7313 297.31 37.3614 297.966 38.2579 298.37C38.8233 298.623 39.3114 298.71 40.6861 298.799C42.7631 298.935 43.3881 299.084 43.6745 299.512C43.8015 299.703 43.8738 299.971 43.8862 300.239C43.9037 300.56 43.8339 300.881 43.6745 301.065C43.286 301.517 42.3272 301.662 40.6861 301.786C39.7547 301.857 39.2865 301.918 38.8507 302.062C38.6589 302.126 38.4746 302.206 38.2579 302.31C36.054 303.381 35.77 305.189 35.7501 309.14C35.7476 309.823 35.6928 310.819 35.6306 311.349C35.5683 311.883 35.5135 312.155 35.389 312.373C35.3218 312.492 35.2346 312.594 35.1126 312.714C34.8984 312.925 34.7465 313.029 34.5323 313.076C34.4203 313.101 34.2932 313.111 34.1239 313.112C33.6258 313.112 33.444 313.041 33.1103 312.714C32.9011 312.509 32.7915 312.354 32.7143 312.08C32.6645 311.902 32.6297 311.675 32.5923 311.351C32.5301 310.819 32.4753 309.824 32.4728 309.14C32.4529 305.191 32.1689 303.381 29.965 302.31C29.2627 301.97 28.8816 301.888 27.5368 301.787C26.6204 301.717 25.9156 301.641 25.4051 301.509C25.0016 301.405 24.7202 301.266 24.5484 301.067C24.4363 300.936 24.3691 300.738 24.3441 300.52C24.3043 300.171 24.374 299.771 24.5484 299.512C24.8348 299.084 25.4598 298.935 27.5368 298.8C28.9115 298.711 29.3996 298.624 29.965 298.37C30.8615 297.968 31.4916 297.31 31.9025 296.353C32.2013 295.657 32.2337 295.357 32.3408 292.321C32.3856 291.105 32.3981 290.016 32.4354 289.338C32.4553 289.009 32.4802 288.778 32.5176 288.675C32.667 288.269 32.8364 288.049 33.1551 287.736C33.4739 287.423 34.1986 287.013 35.0752 287.739Z" fill="#9C84FC"/>
    <defs>
        <linearGradient id="paint0_linear_866_4428" x1="705.232" y1="267.606" x2="913.683" y2="267.606" gradientUnits="userSpaceOnUse">
            <stop offset="0.243622" stop-color="white" stop-opacity="0"/>
            <stop offset="0.331858" stop-color="#DFD4F6"/>
            <stop offset="0.871926" stop-color="#DFD4F6"/>
            <stop offset="1" stop-color="white" stop-opacity="0"/>
        </linearGradient>
        <linearGradient id="paint1_linear_866_4428" x1="41.7304" y1="307.846" x2="74.4065" y2="307.846" gradientUnits="userSpaceOnUse">
            <stop stop-color="white" stop-opacity="0"/>
            <stop offset="0.336255" stop-color="#E3DAF7"/>
            <stop offset="0.871926" stop-color="#E2D9F6"/>
            <stop offset="1" stop-color="white" stop-opacity="0"/>
        </linearGradient>
        <linearGradient id="paint2_linear_866_4428" x1="836.096" y1="302.213" x2="868.772" y2="302.213" gradientUnits="userSpaceOnUse">
            <stop stop-color="white" stop-opacity="0"/>
            <stop offset="0.336255" stop-color="#E3DAF7"/>
            <stop offset="0.871926" stop-color="#E2D9F6"/>
            <stop offset="1" stop-color="white" stop-opacity="0"/>
        </linearGradient>
        <linearGradient id="paint3_linear_866_4428" x1="98.7543" y1="345.674" x2="141.571" y2="345.674" gradientUnits="userSpaceOnUse">
            <stop stop-color="white" stop-opacity="0"/>
            <stop offset="0.336255" stop-color="#E3DAF7"/>
            <stop offset="0.871926" stop-color="#E2D9F6"/>
            <stop offset="1" stop-color="white" stop-opacity="0"/>
        </linearGradient>
        <linearGradient id="paint4_linear_866_4428" x1="273.843" y1="195.372" x2="482.294" y2="195.372" gradientUnits="userSpaceOnUse">
            <stop offset="0.243622" stop-color="white" stop-opacity="0"/>
            <stop offset="0.331858" stop-color="#DFD4F6"/>
            <stop offset="0.871926" stop-color="#DFD4F6"/>
            <stop offset="1" stop-color="white" stop-opacity="0"/>
        </linearGradient>
        <linearGradient id="paint5_linear_866_4428" x1="435.735" y1="81.0845" x2="521.369" y2="81.0845" gradientUnits="userSpaceOnUse">
            <stop offset="0.243622" stop-color="white" stop-opacity="0"/>
            <stop offset="0.331858" stop-color="#DFD4F6"/>
            <stop offset="0.871926" stop-color="#DFD4F6"/>
            <stop offset="1" stop-color="white" stop-opacity="0"/>
        </linearGradient>
        <linearGradient id="paint6_linear_866_4428" x1="545.876" y1="152.516" x2="686.722" y2="152.516" gradientUnits="userSpaceOnUse">
            <stop offset="0.243622" stop-color="white" stop-opacity="0"/>
            <stop offset="0.331858" stop-color="#DFD4F6"/>
            <stop offset="0.871926" stop-color="#DFD4F6"/>
            <stop offset="1" stop-color="white" stop-opacity="0"/>
        </linearGradient>
        <linearGradient id="paint7_linear_866_4428" x1="574.449" y1="153.922" x2="636.421" y2="153.922" gradientUnits="userSpaceOnUse">
            <stop offset="0.243622" stop-color="white" stop-opacity="0"/>
            <stop offset="0.331858" stop-color="#DFD4F6"/>
            <stop offset="0.871926" stop-color="#DFD4F6"/>
            <stop offset="1" stop-color="white" stop-opacity="0"/>
        </linearGradient>
        <linearGradient id="paint8_linear_866_4428" x1="305.192" y1="193.863" x2="426.883" y2="193.863" gradientUnits="userSpaceOnUse">
            <stop offset="0.243622" stop-color="white" stop-opacity="0"/>
            <stop offset="0.331858" stop-color="#F7F4FF"/>
            <stop offset="0.871926" stop-color="#F7F4FF"/>
            <stop offset="1" stop-color="white" stop-opacity="0"/>
        </linearGradient>
        <linearGradient id="paint9_linear_866_4428" x1="458.712" y1="182.495" x2="709.98" y2="182.495" gradientUnits="userSpaceOnUse">
            <stop offset="0.243622" stop-color="white" stop-opacity="0"/>
            <stop offset="0.331858" stop-color="#F7F4FF"/>
            <stop offset="0.871926" stop-color="#F7F4FF"/>
            <stop offset="1" stop-color="white" stop-opacity="0"/>
        </linearGradient>
        <linearGradient id="paint10_linear_866_4428" x1="87.8865" y1="288.833" x2="209.577" y2="288.833" gradientUnits="userSpaceOnUse">
            <stop offset="0.243622" stop-color="white" stop-opacity="0"/>
            <stop offset="0.331858" stop-color="#F7F4FF"/>
            <stop offset="0.871926" stop-color="#F7F4FF"/>
            <stop offset="1" stop-color="white" stop-opacity="0"/>
        </linearGradient>
        <linearGradient id="paint11_linear_866_4428" x1="146.64" y1="105.398" x2="152.757" y2="116.23" gradientUnits="userSpaceOnUse">
            <stop stop-color="#A979E5"/>
            <stop offset="1" stop-color="#8086E6"/>
        </linearGradient>
        <linearGradient id="paint12_linear_866_4428" x1="8.66534" y1="4.37501e-07" x2="-8.95644e-07" y2="10.1945" gradientUnits="userSpaceOnUse">
            <stop stop-color="#C6A1EE"/>
            <stop offset="1" stop-color="#A8A7EB"/>
        </linearGradient>
        <linearGradient id="paint13_linear_866_4428" x1="164.99" y1="87.6854" x2="154.796" y2="93.2924" gradientUnits="userSpaceOnUse">
            <stop stop-color="#ACA7EC"/>
            <stop offset="1" stop-color="#A58DE9"/>
        </linearGradient>
        <linearGradient id="paint14_linear_866_4428" x1="144.601" y1="95.8398" x2="154.796" y2="107.309" gradientUnits="userSpaceOnUse">
            <stop stop-color="#C3CAF2"/>
            <stop offset="1" stop-color="#DAC4F3"/>
        </linearGradient>
        <linearGradient id="paint15_linear_866_4428" x1="155.943" y1="95.8398" x2="162.187" y2="104.887" gradientUnits="userSpaceOnUse">
            <stop stop-color="#8A94E9"/>
            <stop offset="1" stop-color="#8596E8"/>
        </linearGradient>
        <linearGradient id="paint16_linear_866_4428" x1="598.474" y1="109.859" x2="602.337" y2="116.7" gradientUnits="userSpaceOnUse">
            <stop stop-color="#A979E5"/>
            <stop offset="1" stop-color="#8086E6"/>
        </linearGradient>
        <linearGradient id="paint17_linear_866_4428" x1="5.47285" y1="2.76317e-07" x2="-4.41826e-07" y2="6.43864" gradientUnits="userSpaceOnUse">
            <stop stop-color="#C6A1EE"/>
            <stop offset="1" stop-color="#A8A7EB"/>
        </linearGradient>
        <linearGradient id="paint18_linear_866_4428" x1="610.066" y1="98.6725" x2="603.627" y2="102.214" gradientUnits="userSpaceOnUse">
            <stop stop-color="#ACA7EC"/>
            <stop offset="1" stop-color="#A58DE9"/>
        </linearGradient>
        <linearGradient id="paint19_linear_866_4428" x1="597.186" y1="103.822" x2="603.625" y2="111.066" gradientUnits="userSpaceOnUse">
            <stop stop-color="#C3CAF2"/>
            <stop offset="1" stop-color="#DAC4F3"/>
        </linearGradient>
        <linearGradient id="paint20_linear_866_4428" x1="604.351" y1="103.822" x2="608.295" y2="109.537" gradientUnits="userSpaceOnUse">
            <stop stop-color="#8A94E9"/>
            <stop offset="1" stop-color="#8596E8"/>
        </linearGradient>
        <linearGradient id="paint21_linear_866_4428" x1="892.72" y1="297.483" x2="895.617" y2="302.614" gradientUnits="userSpaceOnUse">
            <stop stop-color="#A979E5"/>
            <stop offset="1" stop-color="#8086E6"/>
        </linearGradient>
        <linearGradient id="paint22_linear_866_4428" x1="4.10463" y1="2.07237e-07" x2="2.15872e-08" y2="4.82898" gradientUnits="userSpaceOnUse">
            <stop stop-color="#C6A1EE"/>
            <stop offset="1" stop-color="#A8A7EB"/>
        </linearGradient>
        <linearGradient id="paint23_linear_866_4428" x1="901.409" y1="289.093" x2="896.58" y2="291.749" gradientUnits="userSpaceOnUse">
            <stop stop-color="#ACA7EC"/>
            <stop offset="1" stop-color="#A58DE9"/>
        </linearGradient>
        <linearGradient id="paint24_linear_866_4428" x1="891.754" y1="292.957" x2="896.583" y2="298.39" gradientUnits="userSpaceOnUse">
            <stop stop-color="#C3CAF2"/>
            <stop offset="1" stop-color="#DAC4F3"/>
        </linearGradient>
        <linearGradient id="paint25_linear_866_4428" x1="897.124" y1="292.957" x2="900.081" y2="297.243" gradientUnits="userSpaceOnUse">
            <stop stop-color="#8A94E9"/>
            <stop offset="1" stop-color="#8596E8"/>
        </linearGradient>
        <linearGradient id="paint26_linear_866_4428" x1="719.519" y1="147.446" x2="714.691" y2="150.102" gradientUnits="userSpaceOnUse">
            <stop stop-color="#ACA7EC"/>
            <stop offset="1" stop-color="#A58DE9"/>
        </linearGradient>
        <linearGradient id="paint27_linear_866_4428" x1="715.234" y1="151.309" x2="718.192" y2="155.594" gradientUnits="userSpaceOnUse">
            <stop stop-color="#8A94E9"/>
            <stop offset="1" stop-color="#8596E8"/>
        </linearGradient>
        <linearGradient id="paint28_linear_866_4428" x1="712.417" y1="247.289" x2="720.627" y2="261.827" gradientUnits="userSpaceOnUse">
            <stop stop-color="#A979E5"/>
            <stop offset="1" stop-color="#8086E6"/>
        </linearGradient>
        <linearGradient id="paint29_linear_866_4428" x1="11.6302" y1="5.87193e-07" x2="-8.80051e-07" y2="13.6826" gradientUnits="userSpaceOnUse">
            <stop stop-color="#C6A1EE"/>
            <stop offset="1" stop-color="#A8A7EB"/>
        </linearGradient>
        <linearGradient id="paint30_linear_866_4428" x1="737.047" y1="223.514" x2="723.365" y2="231.039" gradientUnits="userSpaceOnUse">
            <stop stop-color="#ACA7EC"/>
            <stop offset="1" stop-color="#A58DE9"/>
        </linearGradient>
        <linearGradient id="paint31_linear_866_4428" x1="709.681" y1="234.463" x2="723.363" y2="249.856" gradientUnits="userSpaceOnUse">
            <stop stop-color="#C3CAF2"/>
            <stop offset="1" stop-color="#DAC4F3"/>
        </linearGradient>
        <linearGradient id="paint32_linear_866_4428" x1="724.904" y1="234.463" x2="733.285" y2="246.606" gradientUnits="userSpaceOnUse">
            <stop stop-color="#8A94E9"/>
            <stop offset="1" stop-color="#8596E8"/>
        </linearGradient>
        <linearGradient id="paint33_linear_866_4428" x1="70.3035" y1="268.009" x2="226.923" y2="268.009" gradientUnits="userSpaceOnUse">
            <stop offset="0.243622" stop-color="white" stop-opacity="0"/>
            <stop offset="0.331858" stop-color="#F1EDFB"/>
            <stop offset="0.891889" stop-color="#F1EDFB"/>
            <stop offset="1" stop-color="white" stop-opacity="0"/>
        </linearGradient>
        <linearGradient id="paint34_linear_866_4428" x1="171.289" y1="248.889" x2="179.556" y2="259.555" gradientUnits="userSpaceOnUse">
            <stop stop-color="#A28DE8"/>
            <stop offset="1" stop-color="#B787EA"/>
        </linearGradient>
        <linearGradient id="paint35_linear_866_4428" x1="511.089" y1="198.793" x2="516.702" y2="206.036" gradientUnits="userSpaceOnUse">
            <stop stop-color="#A28DE8"/>
            <stop offset="1" stop-color="#B787EA"/>
        </linearGradient>
        <linearGradient id="paint36_linear_866_4428" x1="295.032" y1="28.168" x2="299.398" y2="33.8018" gradientUnits="userSpaceOnUse">
            <stop stop-color="#A28DE8"/>
            <stop offset="1" stop-color="#B787EA"/>
        </linearGradient>
        <linearGradient id="paint37_linear_866_4428" x1="599.439" y1="144.869" x2="604.429" y2="151.308" gradientUnits="userSpaceOnUse">
            <stop stop-color="#A28DE8"/>
            <stop offset="1" stop-color="#B787EA"/>
        </linearGradient>
        <linearGradient id="paint38_linear_866_4428" x1="0.905434" y1="305.029" x2="4.02415" y2="309.053" gradientUnits="userSpaceOnUse">
            <stop stop-color="#A28DE8"/>
            <stop offset="1" stop-color="#B787EA"/>
        </linearGradient>
        <linearGradient id="paint39_linear_866_4428" x1="706.381" y1="262.227" x2="803.283" y2="262.227" gradientUnits="userSpaceOnUse">
            <stop offset="0.243622" stop-color="white" stop-opacity="0"/>
            <stop offset="0.331858" stop-color="#DFD4F6"/>
            <stop offset="0.871926" stop-color="#DFD4F6"/>
            <stop offset="1" stop-color="white" stop-opacity="0"/>
        </linearGradient>
    </defs>
</svg>
