<svg width="820" height="1077" viewBox="0 0 820 1077" fill="none" xmlns="http://www.w3.org/2000/svg">
    <path d="M400.849 12.6461C401.201 12.941 401.662 13.5289 401.837 14.1422C401.908 14.3883 401.955 15.3414 402.001 16.6617L402.115 19.9625C402.201 22.4274 402.255 23.7633 402.349 24.6266C402.443 25.4625 402.572 25.857 402.802 26.4039C403.447 27.9313 404.435 28.9801 405.841 29.6246C406.728 30.0289 407.494 30.1676 409.65 30.3102C412.908 30.527 413.888 30.7652 414.337 31.4488C414.537 31.7535 414.65 32.1813 414.669 32.609C414.697 33.1227 414.587 33.6344 414.337 33.9293C413.728 34.65 412.224 34.8824 409.65 35.0797C408.189 35.193 407.455 35.2906 406.771 35.5211C406.47 35.6227 406.181 35.7516 405.841 35.9176C402.384 37.6266 401.939 40.5152 401.908 46.8238C401.904 47.9156 401.818 49.5055 401.72 50.3531C401.623 51.2047 401.537 51.6402 401.341 51.9879C401.236 52.1774 401.099 52.3414 400.908 52.5328C400.572 52.8688 400.333 53.0348 399.998 53.1109C399.822 53.15 399.623 53.1656 399.357 53.1676C398.576 53.1676 398.291 53.0543 397.767 52.5328C397.439 52.2047 397.267 51.9566 397.146 51.5191C397.068 51.2359 397.013 50.8727 396.955 50.3551C396.857 49.5055 396.771 47.9176 396.767 46.8238C396.736 40.5172 396.291 37.6266 392.833 35.9176C391.732 35.3746 391.134 35.2438 389.025 35.0816C387.587 34.9703 386.482 34.8492 385.681 34.6383C385.048 34.4723 384.607 34.2496 384.337 33.9313C384.162 33.7223 384.056 33.4059 384.017 33.0582C383.955 32.5016 384.064 31.8629 384.337 31.4488C384.787 30.7652 385.767 30.527 389.025 30.3121C391.181 30.1695 391.947 30.0309 392.833 29.6246C394.24 28.982 395.228 27.9313 395.873 26.4039C396.341 25.2926 396.392 24.8121 396.56 19.9645C396.63 18.0231 396.65 16.2828 396.708 15.2008C396.74 14.6754 396.779 14.3063 396.837 14.1422C397.072 13.4938 397.337 13.1422 397.837 12.6422C398.337 12.1422 399.474 11.4879 400.849 12.6461Z" fill="#9C84FC"/>
    <path d="M612.733 93.5336C613.019 93.7772 613.395 94.2627 613.538 94.7692C613.595 94.9725 613.634 95.7597 613.672 96.8501L613.764 99.5762C613.834 101.612 613.879 102.715 613.955 103.428C614.032 104.119 614.137 104.444 614.324 104.896C614.85 106.158 615.655 107.024 616.801 107.556C617.524 107.89 618.148 108.004 619.906 108.122C622.561 108.301 623.36 108.498 623.726 109.063C623.888 109.314 623.981 109.668 623.997 110.021C624.019 110.445 623.93 110.868 623.726 111.111C623.229 111.706 622.004 111.898 619.906 112.061C618.715 112.155 618.116 112.236 617.559 112.426C617.314 112.51 617.078 112.616 616.801 112.753C613.984 114.165 613.621 116.551 613.595 121.761C613.592 122.662 613.522 123.975 613.443 124.676C613.363 125.379 613.293 125.739 613.134 126.026C613.048 126.182 612.936 126.318 612.78 126.476C612.507 126.753 612.312 126.89 612.039 126.953C611.895 126.985 611.733 126.998 611.516 127C610.88 127 610.647 126.906 610.221 126.476C609.953 126.205 609.813 126 609.714 125.639C609.651 125.405 609.606 125.105 609.558 124.677C609.479 123.975 609.409 122.664 609.406 121.761C609.38 116.552 609.017 114.165 606.2 112.753C605.302 112.305 604.815 112.197 603.095 112.063C601.924 111.971 601.023 111.871 600.37 111.697C599.854 111.56 599.495 111.376 599.275 111.113C599.132 110.94 599.046 110.679 599.014 110.392C598.963 109.932 599.052 109.405 599.275 109.063C599.641 108.498 600.44 108.301 603.095 108.124C604.853 108.006 605.477 107.892 606.2 107.556C607.346 107.025 608.151 106.158 608.677 104.896C609.059 103.978 609.1 103.581 609.237 99.5778C609.294 97.9744 609.31 96.5371 609.358 95.6435C609.383 95.2096 609.415 94.9047 609.463 94.7692C609.654 94.2337 609.87 93.9433 610.278 93.5304C610.685 93.1174 611.612 92.5771 612.733 93.5336Z" fill="#9C84FC"/>
    <path d="M322.169 394.926C322.674 395.349 323.335 396.191 323.587 397.07C323.688 397.423 323.755 398.789 323.822 400.681L323.985 405.412C324.108 408.944 324.187 410.859 324.321 412.096C324.456 413.294 324.641 413.859 324.971 414.643C325.896 416.832 327.313 418.335 329.331 419.259C330.602 419.838 331.701 420.037 334.794 420.242C339.467 420.552 340.873 420.894 341.518 421.873C341.804 422.31 341.966 422.923 341.994 423.536C342.033 424.272 341.876 425.006 341.518 425.428C340.644 426.461 338.486 426.794 334.794 427.077C332.698 427.239 331.645 427.379 330.664 427.71C330.233 427.855 329.818 428.04 329.331 428.278C324.372 430.727 323.733 434.867 323.688 443.908C323.682 445.473 323.559 447.752 323.419 448.966C323.279 450.187 323.156 450.811 322.875 451.309C322.724 451.581 322.528 451.816 322.253 452.09C321.772 452.572 321.43 452.81 320.948 452.919C320.696 452.975 320.41 452.997 320.029 453C318.908 453 318.499 452.838 317.748 452.09C317.278 451.62 317.031 451.265 316.857 450.638C316.745 450.232 316.667 449.711 316.583 448.969C316.443 447.752 316.32 445.476 316.314 443.908C316.269 434.87 315.63 430.727 310.671 428.278C309.091 427.5 308.234 427.312 305.208 427.08C303.146 426.92 301.56 426.747 300.412 426.444C299.504 426.207 298.871 425.887 298.484 425.431C298.232 425.132 298.081 424.678 298.025 424.18C297.935 423.382 298.092 422.467 298.484 421.873C299.128 420.894 300.535 420.552 305.208 420.244C308.301 420.04 309.399 419.841 310.671 419.259C312.689 418.338 314.106 416.832 315.031 414.643C315.703 413.051 315.776 412.362 316.017 405.414C316.118 402.632 316.146 400.138 316.23 398.587C316.275 397.834 316.331 397.305 316.415 397.07C316.751 396.141 317.132 395.637 317.849 394.92C318.566 394.204 320.197 393.266 322.169 394.926Z" fill="#9C84FC"/>
    <path d="M536.381 411.581C536.701 411.846 537.122 412.374 537.283 412.925C537.347 413.147 537.39 414.003 537.432 415.19L537.536 418.156C537.614 420.372 537.664 421.572 537.75 422.348C537.835 423.1 537.953 423.454 538.163 423.946C538.752 425.318 539.654 426.261 540.938 426.84C541.747 427.204 542.446 427.328 544.414 427.457C547.388 427.651 548.283 427.866 548.693 428.48C548.875 428.754 548.978 429.138 548.996 429.523C549.021 429.984 548.921 430.444 548.693 430.709C548.137 431.357 546.764 431.566 544.414 431.743C543.081 431.845 542.41 431.933 541.786 432.14C541.512 432.231 541.248 432.347 540.938 432.496C537.782 434.032 537.375 436.629 537.347 442.298C537.343 443.28 537.265 444.709 537.176 445.47C537.087 446.236 537.008 446.627 536.83 446.94C536.734 447.11 536.609 447.257 536.434 447.43C536.127 447.731 535.91 447.881 535.603 447.949C535.443 447.984 535.261 447.998 535.018 448C534.305 448 534.045 447.898 533.567 447.43C533.268 447.135 533.111 446.912 533 446.518C532.929 446.264 532.879 445.937 532.825 445.472C532.736 444.709 532.658 443.281 532.654 442.298C532.626 436.63 532.219 434.032 529.064 432.496C528.058 432.008 527.512 431.891 525.587 431.745C524.275 431.645 523.266 431.536 522.535 431.347C521.957 431.197 521.554 430.997 521.308 430.711C521.148 430.523 521.051 430.239 521.016 429.926C520.959 429.426 521.058 428.852 521.308 428.48C521.718 427.866 522.613 427.651 525.587 427.458C527.555 427.33 528.254 427.206 529.064 426.84C530.347 426.263 531.249 425.318 531.838 423.946C532.266 422.947 532.312 422.515 532.465 418.158C532.53 416.413 532.547 414.849 532.601 413.877C532.629 413.405 532.665 413.073 532.719 412.925C532.932 412.343 533.175 412.027 533.631 411.577C534.088 411.128 535.125 410.54 536.381 411.581Z" fill="#9C84FC"/>
    <path d="M653.479 474.628C653.823 474.914 654.274 475.486 654.446 476.081C654.515 476.321 654.56 477.247 654.606 478.53L654.717 481.737C654.801 484.132 654.855 485.43 654.946 486.268C655.038 487.081 655.164 487.464 655.389 487.995C656.02 489.479 656.986 490.499 658.362 491.125C659.229 491.518 659.978 491.652 662.087 491.791C665.273 492.002 666.232 492.233 666.671 492.897C666.866 493.193 666.977 493.609 666.996 494.024C667.023 494.524 666.916 495.021 666.671 495.307C666.075 496.008 664.604 496.233 662.087 496.425C660.658 496.535 659.94 496.63 659.271 496.854C658.977 496.953 658.694 497.078 658.362 497.239C654.981 498.9 654.545 501.707 654.515 507.836C654.511 508.897 654.427 510.442 654.331 511.265C654.236 512.093 654.152 512.516 653.961 512.854C653.857 513.038 653.724 513.197 653.536 513.383C653.208 513.71 652.975 513.871 652.646 513.945C652.474 513.983 652.279 513.998 652.02 514C651.256 514 650.977 513.89 650.465 513.383C650.144 513.064 649.976 512.823 649.857 512.398C649.781 512.123 649.727 511.77 649.67 511.267C649.575 510.442 649.491 508.899 649.487 507.836C649.456 501.708 649.021 498.9 645.64 497.239C644.562 496.712 643.978 496.585 641.915 496.427C640.509 496.319 639.427 496.201 638.644 495.996C638.025 495.835 637.594 495.619 637.33 495.309C637.158 495.106 637.055 494.799 637.017 494.461C636.956 493.92 637.063 493.3 637.33 492.897C637.769 492.233 638.728 492.001 641.915 491.793C644.023 491.654 644.772 491.519 645.64 491.125C647.015 490.5 647.982 489.479 648.612 487.995C649.07 486.916 649.12 486.449 649.284 481.739C649.353 479.852 649.372 478.161 649.429 477.11C649.46 476.6 649.498 476.241 649.556 476.081C649.785 475.451 650.045 475.11 650.534 474.624C651.023 474.138 652.134 473.502 653.479 474.628Z" fill="#9C84FC"/>
    <path d="M425.183 819.502C425.458 819.731 425.819 820.188 425.957 820.665C426.012 820.856 426.048 821.597 426.085 822.624L426.174 825.189C426.241 827.105 426.284 828.144 426.357 828.815C426.43 829.465 426.531 829.771 426.712 830.196C427.216 831.383 427.989 832.199 429.089 832.7C429.783 833.014 430.382 833.122 432.069 833.233C434.618 833.401 435.386 833.586 435.737 834.118C435.893 834.355 435.982 834.687 435.997 835.02C436.018 835.419 435.933 835.817 435.737 836.046C435.26 836.606 434.083 836.787 432.069 836.94C430.926 837.028 430.352 837.104 429.817 837.283C429.581 837.362 429.355 837.462 429.089 837.591C426.384 838.92 426.036 841.165 426.012 846.069C426.009 846.918 425.941 848.153 425.865 848.812C425.788 849.474 425.721 849.813 425.568 850.083C425.486 850.23 425.379 850.358 425.229 850.507C424.966 850.768 424.78 850.897 424.517 850.956C424.379 850.986 424.224 850.998 424.016 851C423.405 851 423.181 850.912 422.772 850.507C422.515 850.252 422.381 850.059 422.286 849.719C422.225 849.498 422.182 849.216 422.136 848.814C422.06 848.153 421.992 846.919 421.989 846.069C421.965 841.167 421.617 838.92 418.912 837.591C418.05 837.169 417.582 837.068 415.932 836.942C414.807 836.855 413.942 836.761 413.315 836.597C412.82 836.468 412.475 836.295 412.264 836.047C412.126 835.885 412.044 835.639 412.013 835.369C411.964 834.936 412.05 834.44 412.264 834.118C412.615 833.586 413.383 833.401 415.932 833.234C417.619 833.123 418.218 833.016 418.912 832.7C420.012 832.2 420.785 831.383 421.289 830.196C421.656 829.332 421.696 828.959 421.827 825.191C421.882 823.682 421.898 822.329 421.944 821.488C421.968 821.08 421.999 820.793 422.044 820.665C422.228 820.161 422.436 819.888 422.827 819.499C423.218 819.111 424.107 818.602 425.183 819.502Z" fill="#9C84FC"/>
    <path d="M67.775 871.722C68.1876 872.051 68.7286 872.708 68.9349 873.394C69.0174 873.669 69.0724 874.734 69.1274 876.209L69.2604 879.897C69.3612 882.651 69.4254 884.144 69.5355 885.109C69.6455 886.043 69.7968 886.484 70.0673 887.095C70.8237 888.801 71.9836 889.973 73.6341 890.693C74.6748 891.145 75.5733 891.3 78.104 891.459C81.9276 891.702 83.0783 891.968 83.6055 892.732C83.8393 893.072 83.9723 893.55 83.9952 894.028C84.0273 894.602 83.8989 895.174 83.6055 895.503C82.8903 896.309 81.1253 896.568 78.104 896.789C76.3894 896.915 75.5275 897.025 74.7252 897.282C74.3722 897.396 74.0329 897.54 73.6341 897.725C69.5767 899.635 69.0541 902.862 69.0174 909.912C69.0128 911.132 68.912 912.908 68.7973 913.855C68.6827 914.807 68.5819 915.293 68.3526 915.682C68.2289 915.893 68.0684 916.077 67.8438 916.291C67.4495 916.666 67.1698 916.852 66.7755 916.937C66.5692 916.98 66.3354 916.998 66.0237 917C65.1068 917 64.7721 916.873 64.1578 916.291C63.7726 915.924 63.5709 915.647 63.4288 915.158C63.3371 914.842 63.2729 914.436 63.2042 913.857C63.0896 912.908 62.9887 911.134 62.9841 909.912C62.9474 902.865 62.4248 899.635 58.3674 897.725C57.0746 897.118 56.3731 896.972 53.8975 896.791C52.2104 896.667 50.9129 896.531 49.9731 896.296C49.2304 896.11 48.7123 895.861 48.396 895.506C48.1897 895.272 48.0659 894.919 48.0201 894.53C47.9467 893.908 48.0751 893.194 48.396 892.732C48.9232 891.968 50.0739 891.702 53.8975 891.462C56.4282 891.302 57.3267 891.147 58.3674 890.693C60.0179 889.975 61.1778 888.801 61.9342 887.095C62.4844 885.853 62.544 885.316 62.7411 879.899C62.8236 877.73 62.8466 875.786 62.9153 874.577C62.952 873.99 62.9979 873.577 63.0666 873.394C63.3417 872.669 63.6534 872.276 64.2403 871.718C64.8271 871.159 66.1612 870.428 67.775 871.722Z" fill="#9C84FC"/>
    <path d="M491 662H531V702H491V662Z" fill="url(#paint0_linear_668_10647)"/>
    <path d="M491 622H531V662H491V622Z" fill="url(#paint1_linear_668_10647)"/>
    <path d="M571 622H531V662H571V622Z" fill="url(#paint2_linear_668_10647)"/>
    <path d="M451 702V662H491V702H451Z" fill="url(#paint3_linear_668_10647)"/>
    <path d="M571 702V662H611V702H571Z" fill="url(#paint4_linear_668_10647)"/>
    <path d="M491 742H531V782H491V742Z" fill="url(#paint5_linear_668_10647)"/>
    <path d="M451 742V702H491V742H451Z" fill="url(#paint6_linear_668_10647)"/>
    <path d="M571 742V702H611V742H571Z" fill="url(#paint7_linear_668_10647)"/>
    <path d="M531 782V742H571V782H531Z" fill="url(#paint8_linear_668_10647)"/>
    <path d="M531 662H571V702H531V662Z" fill="url(#paint9_linear_668_10647)"/>
    <path d="M531 702H571V742H531V702Z" fill="url(#paint10_linear_668_10647)"/>
    <path d="M491 702H531V742H491V702Z" fill="url(#paint11_linear_668_10647)"/>
    <path d="M204 868H244V908H204V868Z" fill="url(#paint12_linear_668_10647)"/>
    <path d="M284 828H244V868H284V828Z" fill="url(#paint13_linear_668_10647)"/>
    <path d="M284 908V868H324V908H284Z" fill="url(#paint14_linear_668_10647)"/>
    <path d="M244 868H284V908H244V868Z" fill="url(#paint15_linear_668_10647)"/>
    <path d="M244 908H284V948H244V908Z" fill="url(#paint16_linear_668_10647)"/>
    <path d="M642 430H759V437H642V430Z" fill="url(#paint17_linear_668_10647)"/>
    <path d="M502 452H761V459H502V452Z" fill="url(#paint18_linear_668_10647)"/>
    <path d="M266 585H787V596H266V585Z" fill="url(#paint19_linear_668_10647)"/>
    <path d="M545 859H776V864H545V859Z" fill="url(#paint20_linear_668_10647)"/>
    <path d="M346 877H767V887H346V877Z" fill="url(#paint21_linear_668_10647)"/>
    <path d="M68 980H158V996H68V980Z" fill="url(#paint22_linear_668_10647)"/>
    <path d="M687 661H758V668H687V661Z" fill="url(#paint23_linear_668_10647)"/>
    <path d="M727 782H770V789H727V782Z" fill="url(#paint24_linear_668_10647)"/>
    <path d="M190 708H290V714H190V708Z" fill="url(#paint25_linear_668_10647)"/>
    <path d="M696 374H736V414H696V374Z" fill="url(#paint26_linear_668_10647)"/>
    <path d="M776 334H736V374H776V334Z" fill="url(#paint27_linear_668_10647)"/>
    <path d="M776 414V374H816V414H776Z" fill="url(#paint28_linear_668_10647)"/>
    <path d="M736 374H776V414H736V374Z" fill="url(#paint29_linear_668_10647)"/>
    <path d="M736 414H776V454H736V414Z" fill="url(#paint30_linear_668_10647)"/>
    <path d="M500 260H736V272H500V260Z" fill="url(#paint31_linear_668_10647)"/>
    <path d="M717 248H761V260H717V248Z" fill="url(#paint32_linear_668_10647)"/>
    <path d="M717 272H761V284H717V272Z" fill="url(#paint33_linear_668_10647)"/>
    <path d="M491 290H531V330H491V290Z" fill="url(#paint34_linear_668_10647)"/>
    <path d="M571 250H531V290H571V250Z" fill="url(#paint35_linear_668_10647)"/>
    <path d="M571 330V290H611V330H571Z" fill="url(#paint36_linear_668_10647)"/>
    <path d="M531 290H571V330H531V290Z" fill="url(#paint37_linear_668_10647)"/>
    <path d="M531 330H571V370H531V330Z" fill="url(#paint38_linear_668_10647)"/>
    <path d="M645 7H652V14H645V7Z" fill="#C6B2EF"/>
    <path d="M659 0H652V7H659V0Z" fill="#C6B2EF"/>
    <path d="M659 14V7H666V14H659Z" fill="#C6B2EF"/>
    <path d="M652 14H659V21H652V14Z" fill="#C6B2EF"/>
    <path d="M454 1H483V5H454V1Z" fill="url(#paint39_linear_668_10647)"/>
    <path d="M491 130H675V137H491V130Z" fill="url(#paint40_linear_668_10647)"/>
    <path d="M631 14H624V21H631V14Z" fill="#D8CCF4"/>
    <path d="M574 10V3H581V10H574Z" fill="#C6B2EF"/>
    <path d="M493 144H500V151H493V144Z" fill="#C6B2EF"/>
    <path d="M757 221H764V228H757V221Z" fill="#C6B2EF"/>
    <path d="M489 212H499V222H489V212Z" fill="#C6B2EF"/>
    <path d="M295 296H303V304H295V296Z" fill="#C6B2EF"/>
    <path d="M470 378H476V384H470V378Z" fill="#C6B2EF"/>
    <path d="M696 308H703V315H696V308Z" fill="#C6B2EF"/>
    <path d="M682 389H689V396H682V389Z" fill="#C6B2EF"/>
    <path d="M661 430H668V437H661V430Z" fill="#C6B2EF"/>
    <path d="M491 452H498V459H491V452Z" fill="#C6B2EF"/>
    <path d="M472 462H482V472H472V462Z" fill="#C6B2EF"/>
    <path d="M410 475H420V485H410V475Z" fill="#C6B2EF"/>
    <path d="M420 504H430V514H420V504Z" fill="#C6B2EF"/>
    <path d="M584 539H590V545H584V539Z" fill="#E3D8F6"/>
    <path d="M570 552H576V558H570V552Z" fill="#E3D8F6"/>
    <path d="M700 561H706V567H700V561Z" fill="#C6B2EF"/>
    <path d="M434 617H440V623H434V617Z" fill="#C6B2EF"/>
    <path d="M696 661H703V668H696V661Z" fill="#C6B2EF"/>
    <path d="M327 717H341V731H327V717Z" fill="#C6B2EF"/>
    <path d="M489 841H498V850H489V841Z" fill="#C6B2EF"/>
    <path d="M461 822H468V829H461V822Z" fill="#C6B2EF"/>
    <path d="M556 807H562V813H556V807Z" fill="#C6B2EF"/>
    <path d="M518 809H525V816H518V809Z" fill="#E3D8F6"/>
    <path d="M618 812H625V819H618V812Z" fill="#E3D8F6"/>
    <path d="M744 900H751V907H744V900Z" fill="#E3D8F6"/>
    <path d="M717 788H723V794H717V788Z" fill="#E3D8F6"/>
    <path d="M738 782H745V789H738V782Z" fill="#C7B2ED"/>
    <path d="M573 854H578V859H573V854Z" fill="#E3D8F6"/>
    <path d="M568 859H573V864H568V859Z" fill="#E3D8F6"/>
    <path d="M511 891H518V898H511V891Z" fill="#E3D8F6"/>
    <path d="M458 957H465V964H458V957Z" fill="#C6B2F0"/>
    <path d="M100 945H107V952H100V945Z" fill="#C6B2F0"/>
    <path d="M85 980H101V996H85V980Z" fill="#DBCFF5"/>
    <path d="M337 981H351V995H337V981Z" fill="#C6B2F0"/>
    <path d="M367 877H377V887H367V877Z" fill="#C6B2F0"/>
    <path d="M465 937H470V942H465V937Z" fill="#E1D8F7"/>
    <path d="M198 708H204V714H198V708Z" fill="#C6B2EF"/>
    <path d="M279 800H286V807H279V800Z" fill="#E4D9F7"/>
    <path d="M499 202H509V212H499V202Z" fill="#E2D9F8"/>
    <path d="M530 137H537V144H530V137Z" fill="#C6B2EF"/>
    <path d="M544 130H537V137H544V130Z" fill="#C6B2EF"/>
    <path d="M544 144V137H551V144H544Z" fill="#C6B2EF"/>
    <path d="M537 144H544V151H537V144Z" fill="#C6B2EF"/>
    <path d="M710 313H717V320H710V313Z" fill="#C6B2EF"/>
    <path d="M724 306H717V313H724V306Z" fill="#C6B2EF"/>
    <path d="M724 320V313H731V320H724Z" fill="#C6B2EF"/>
    <path d="M717 320H724V327H717V320Z" fill="#C6B2EF"/>
    <path d="M672 608H679V615H672V608Z" fill="#E0D4FA"/>
    <path d="M686 601H679V608H686V601Z" fill="#E0D4FA"/>
    <path d="M679 615H686V622H679V615Z" fill="#E0D4FA"/>
    <path d="M441 382H448V389H441V382Z" fill="#C6B2EF"/>
    <path d="M455 375H448V382H455V375Z" fill="#C6B2EF"/>
    <path d="M455 389V382H462V389H455Z" fill="#C6B2EF"/>
    <path d="M448 389H455V396H448V389Z" fill="#C6B2EF"/>
    <path d="M668 682H674V688H668V682Z" fill="#C6B2EF"/>
    <path d="M680 676H674V682H680V676Z" fill="#C6B2EF"/>
    <path d="M680 688V682H686V688H680Z" fill="#C6B2EF"/>
    <path d="M674 688H680V694H674V688Z" fill="#C6B2EF"/>
    <path d="M722 810H730V818H722V810Z" fill="#C7B1EF"/>
    <path d="M738 802H730V810H738V802Z" fill="#C7B1EF"/>
    <path d="M738 818V810H746V818H738Z" fill="#C7B1EF"/>
    <path d="M730 818H738V826H730V818Z" fill="#C7B1EF"/>
    <path d="M246 964H252V970H246V964Z" fill="#C7B1EF"/>
    <path d="M258 958H252V964H258V958Z" fill="#C7B1EF"/>
    <path d="M258 970V964H264V970H258Z" fill="#C7B1EF"/>
    <path d="M252 970H258V976H252V970Z" fill="#C7B1EF"/>
    <path d="M731 975H742V986H731V975Z" fill="#C7B1EF"/>
    <path d="M753 964H742V975H753V964Z" fill="#C7B1EF"/>
    <path d="M753 986V975H764V986H753Z" fill="#C7B1EF"/>
    <path d="M742 986H753V997H742V986Z" fill="#C7B1EF"/>
    <path d="M698 732H701V735H698V732Z" fill="#E2D8FA"/>
    <path d="M704 729H701V732H704V729Z" fill="#E2D8FA"/>
    <path d="M704 735V732H707V735H704Z" fill="#E2D8FA"/>
    <path d="M701 735H704V738H701V735Z" fill="#E2D8FA"/>
    <path d="M602 406H618V422H602V406Z" fill="#D4C4F3"/>
    <path d="M634 390H618V406H634V390Z" fill="#D4C4F3"/>
    <path d="M634 422V406H650V422H634Z" fill="#D4C4F3"/>
    <path d="M618 422H634V438H618V422Z" fill="#D4C4F3"/>
    <path d="M394 195H406V207H394V195Z" fill="#E2D9F8"/>
    <path d="M418 183H406V195H418V183Z" fill="#E2D9F8"/>
    <path d="M418 207V195H430V207H418Z" fill="#E2D9F8"/>
    <path d="M406 207H418V219H406V207Z" fill="#E2D9F8"/>
    <path d="M452 262H462V272H452V262Z" fill="#E2D9F8"/>
    <path d="M472 252H462V262H472V252Z" fill="#E2D9F8"/>
    <path d="M472 272V262H482V272H472Z" fill="#E2D9F8"/>
    <path d="M462 272H472V282H462V272Z" fill="#E2D9F8"/>
    <path d="M307 596H318V607H307V596Z" fill="#E2D9F8"/>
    <path d="M329 585H318V596H329V585Z" fill="#D3C6F2"/>
    <path d="M329 607V596H340V607H329Z" fill="#E2D9F8"/>
    <path d="M318 607H329V618H318V607Z" fill="#E2D9F8"/>
    <path d="M578 833H589V844H578V833Z" fill="#E2D9F8"/>
    <path d="M600 822H589V833H600V822Z" fill="#E2D9F8"/>
    <path d="M600 844V833H611V844H600Z" fill="#E2D9F8"/>
    <path d="M589 844H600V855H589V844Z" fill="#E2D9F8"/>
    <path d="M139 755H152V768H139V755Z" fill="#E2D9F8"/>
    <path d="M165 742H152V755H165V742Z" fill="#D3C6F2"/>
    <path d="M165 768V755H178V768H165Z" fill="#E2D9F8"/>
    <path d="M383 739H393V749H383V739Z" fill="#C6B2EF"/>
    <path d="M403 729H393V739H403V729Z" fill="#C6B2EF"/>
    <path d="M403 749V739H413V749H403Z" fill="#C6B2EF"/>
    <path d="M393 749H403V759H393V749Z" fill="#C6B2EF"/>
    <path d="M592 166H597V171H592V166Z" fill="#E2D9F6"/>
    <path d="M602 161H597V166H602V161Z" fill="#E2D9F6"/>
    <path d="M602 171V166H607V171H602Z" fill="#E2D9F6"/>
    <path d="M597 171H602V176H597V171Z" fill="#E2D9F6"/>
    <path d="M736 538H776V578H736V538Z" fill="url(#paint41_linear_668_10647)"/>
    <path d="M530 951H572V993H530V951Z" fill="url(#paint42_linear_668_10647)"/>
    <path d="M530 909H572V951H530V909Z" fill="url(#paint43_linear_668_10647)"/>
    <path d="M614 909H572V951H614V909Z" fill="url(#paint44_linear_668_10647)"/>
    <path d="M488 993V951H530V993H488Z" fill="url(#paint45_linear_668_10647)"/>
    <path d="M614 993V951H656V993H614Z" fill="url(#paint46_linear_668_10647)"/>
    <path d="M530 1035H572V1077H530V1035Z" fill="url(#paint47_linear_668_10647)"/>
    <path d="M488 1035V993H530V1035H488Z" fill="url(#paint48_linear_668_10647)"/>
    <path d="M614 1035V993H656V1035H614Z" fill="url(#paint49_linear_668_10647)"/>
    <path d="M572 1077V1035H614V1077H572Z" fill="url(#paint50_linear_668_10647)"/>
    <path d="M572 951H614V993H572V951Z" fill="url(#paint51_linear_668_10647)"/>
    <path d="M572 993H614V1035H572V993Z" fill="url(#paint52_linear_668_10647)"/>
    <path d="M530 993H572V1035H530V993Z" fill="url(#paint53_linear_668_10647)"/>
    <path d="M694 85H736V127H694V85Z" fill="url(#paint54_linear_668_10647)"/>
    <path d="M694 43H736V85H694V43Z" fill="url(#paint55_linear_668_10647)"/>
    <path d="M778 43H736V85H778V43Z" fill="url(#paint56_linear_668_10647)"/>
    <path d="M652 127V85H694V127H652Z" fill="url(#paint57_linear_668_10647)"/>
    <path d="M736 169V127H778V169H736Z" fill="url(#paint58_linear_668_10647)"/>
    <path d="M694 169H736V211H694V169Z" fill="url(#paint59_linear_668_10647)"/>
    <path d="M652 169V127H694V169H652Z" fill="url(#paint60_linear_668_10647)"/>
    <path d="M736 127V85H778V127H736Z" fill="url(#paint61_linear_668_10647)"/>
    <path d="M736 211V169H778V211H736Z" fill="url(#paint62_linear_668_10647)"/>
    <path d="M778 127H820V169H778V127Z" fill="url(#paint63_linear_668_10647)"/>
    <path d="M778 85H820V127H778V85Z" fill="url(#paint64_linear_668_10647)"/>
    <path d="M694 127H736V169H694V127Z" fill="url(#paint65_linear_668_10647)"/>
    <path d="M134 963C134 965.761 131.761 968 129 968C126.239 968 124 965.761 124 963C124 960.239 126.239 958 129 958C131.761 958 134 960.239 134 963Z" fill="#9B89FF"/>
    <path d="M167 890C167 891.105 166.105 892 165 892C163.895 892 163 891.105 163 890C163 888.895 163.895 888 165 888C166.105 888 167 888.895 167 890Z" fill="#9B89FF"/>
    <path d="M420 720C420 721.105 419.105 722 418 722C416.895 722 416 721.105 416 720C416 718.895 416.895 718 418 718C419.105 718 420 718.895 420 720Z" fill="#9B89FF"/>
    <path d="M430 631C430 632.105 429.105 633 428 633C426.895 633 426 632.105 426 631C426 629.895 426.895 629 428 629C429.105 629 430 629.895 430 631Z" fill="#9B89FF"/>
    <path d="M681 506C681 507.105 680.105 508 679 508C677.895 508 677 507.105 677 506C677 504.895 677.895 504 679 504C680.105 504 681 504.895 681 506Z" fill="#9B89FF"/>
    <path d="M576 232C576 233.657 574.657 235 573 235C571.343 235 570 233.657 570 232C570 230.343 571.343 229 573 229C574.657 229 576 230.343 576 232Z" fill="#9B89FF"/>
    <path d="M632 504C632 505.105 631.105 506 630 506C628.895 506 628 505.105 628 504C628 502.895 628.895 502 630 502C631.105 502 632 502.895 632 504Z" fill="#9B89FF"/>
    <path d="M350 388C350 389.105 349.105 390 348 390C346.895 390 346 389.105 346 388C346 386.895 346.895 386 348 386C349.105 386 350 386.895 350 388Z" fill="#9B89FF"/>
    <path d="M599 227C599 228.105 598.105 229 597 229C595.895 229 595 228.105 595 227C595 225.895 595.895 225 597 225C598.105 225 599 225.895 599 227Z" fill="#9B89FF"/>
    <path d="M545 29C545 30.1046 544.105 31 543 31C541.895 31 541 30.1046 541 29C541 27.8954 541.895 27 543 27C544.105 27 545 27.8954 545 29Z" fill="#9B89FF"/>
    <path d="M591 41C591 42.1046 590.105 43 589 43C587.895 43 587 42.1046 587 41C587 39.8954 587.895 39 589 39C590.105 39 591 39.8954 591 41Z" fill="#9B89FF"/>
    <path d="M671 514C671 515.657 669.657 517 668 517C666.343 517 665 515.657 665 514C665 512.343 666.343 511 668 511C669.657 511 671 512.343 671 514Z" fill="#9B89FF"/>
    <path d="M579 481C579 483.209 577.209 485 575 485C572.791 485 571 483.209 571 481C571 478.791 572.791 477 575 477C577.209 477 579 478.791 579 481Z" fill="#9B89FF"/>
    <path d="M301 461C301 463.761 298.761 466 296 466C293.239 466 291 463.761 291 461C291 458.239 293.239 456 296 456C298.761 456 301 458.239 301 461Z" fill="#9B89FF"/>
    <path d="M601 129C601 131.761 598.761 134 596 134C593.239 134 591 131.761 591 129C591 126.239 593.239 124 596 124C598.761 124 601 126.239 601 129Z" fill="#9B89FF"/>
    <path d="M387 80C387 82.7614 384.761 85 382 85C379.239 85 377 82.7614 377 80C377 77.2386 379.239 75 382 75C384.761 75 387 77.2386 387 80Z" fill="#9B89FF"/>
    <path d="M284 771C284 772.105 283.105 773 282 773C280.895 773 280 772.105 280 771C280 769.895 280.895 769 282 769C283.105 769 284 769.895 284 771Z" fill="#9B89FF"/>
    <path d="M277 780C277 782.209 275.209 784 273 784C270.791 784 269 782.209 269 780C269 777.791 270.791 776 273 776C275.209 776 277 777.791 277 780Z" fill="#9B89FF"/>
    <path d="M637 713.5C637 715.985 634.985 718 632.5 718C630.015 718 628 715.985 628 713.5C628 711.015 630.015 709 632.5 709C634.985 709 637 711.015 637 713.5Z" fill="#9B89FF"/>
    <path d="M297 617.5C297 619.433 295.433 621 293.5 621C291.567 621 290 619.433 290 617.5C290 615.567 291.567 614 293.5 614C295.433 614 297 615.567 297 617.5Z" fill="#9B89FF"/>
    <path d="M296 978C296 979.105 295.105 980 294 980C292.895 980 292 979.105 292 978C292 976.895 292.895 976 294 976C295.105 976 296 976.895 296 978Z" fill="#9B89FF"/>
    <path d="M7 977.5C7 979.433 5.433 981 3.5 981C1.567 981 0 979.433 0 977.5C0 975.567 1.567 974 3.5 974C5.433 974 7 975.567 7 977.5Z" fill="#9B89FF"/>
    <path d="M452 952C452 953.657 450.657 955 449 955C447.343 955 446 953.657 446 952C446 950.343 447.343 949 449 949C450.657 949 452 950.343 452 952Z" fill="#9B89FF"/>
    <path d="M714 936C714 937.657 712.657 939 711 939C709.343 939 708 937.657 708 936C708 934.343 709.343 933 711 933C712.657 933 714 934.343 714 936Z" fill="#9B89FF"/>
    <defs>
        <linearGradient id="paint0_linear_668_10647" x1="92.25" y1="269.25" x2="948.224" y2="1089.15" gradientUnits="userSpaceOnUse">
            <stop stop-color="#D2B9F2"/>
            <stop offset="1" stop-color="#C1BCF3"/>
        </linearGradient>
        <linearGradient id="paint1_linear_668_10647" x1="41" y1="40.3875" x2="627.479" y2="682.955" gradientUnits="userSpaceOnUse">
            <stop stop-color="#C57DFF"/>
            <stop offset="1" stop-color="#AA79E6"/>
        </linearGradient>
        <linearGradient id="paint2_linear_668_10647" x1="410" y1="-1.60485e-05" x2="-207.7" y2="940.602" gradientUnits="userSpaceOnUse">
            <stop stop-color="#AD77E6"/>
            <stop offset="1" stop-color="#A07CE6"/>
        </linearGradient>
        <linearGradient id="paint3_linear_668_10647" x1="820" y1="376.95" x2="-145.541" y2="630.164" gradientUnits="userSpaceOnUse">
            <stop stop-color="#AD77E6"/>
            <stop offset="1" stop-color="#9E7DE6"/>
        </linearGradient>
        <linearGradient id="paint4_linear_668_10647" x1="820" y1="215.4" x2="-88.7031" y2="595.925" gradientUnits="userSpaceOnUse">
            <stop stop-color="#A67BE6"/>
            <stop offset="1" stop-color="#7B85E6"/>
        </linearGradient>
        <linearGradient id="paint5_linear_668_10647" x1="133.25" y1="-2.45844e-05" x2="900.664" y2="881.946" gradientUnits="userSpaceOnUse">
            <stop stop-color="#8185E6"/>
            <stop offset="1" stop-color="#7188E6"/>
        </linearGradient>
        <linearGradient id="paint6_linear_668_10647" x1="820" y1="309.637" x2="-231.836" y2="680.553" gradientUnits="userSpaceOnUse">
            <stop stop-color="#A47AE6"/>
            <stop offset="1" stop-color="#7E87E6"/>
        </linearGradient>
        <linearGradient id="paint7_linear_668_10647" x1="820" y1="296.175" x2="-212.849" y2="697.915" gradientUnits="userSpaceOnUse">
            <stop stop-color="#7888E7"/>
            <stop offset="1" stop-color="#7289E6"/>
        </linearGradient>
        <linearGradient id="paint8_linear_668_10647" x1="820" y1="296.175" x2="-212.849" y2="697.915" gradientUnits="userSpaceOnUse">
            <stop stop-color="#7A8AEE"/>
            <stop offset="1" stop-color="#7289E6"/>
        </linearGradient>
        <linearGradient id="paint9_linear_668_10647" x1="0" y1="0" x2="1071.61" y2="917.88" gradientUnits="userSpaceOnUse">
            <stop stop-color="#C8AFF0"/>
            <stop offset="1" stop-color="#B0B5EF"/>
        </linearGradient>
        <linearGradient id="paint10_linear_668_10647" x1="92.25" y1="1.64498e-05" x2="933.561" y2="854.07" gradientUnits="userSpaceOnUse">
            <stop stop-color="#B6B8F1"/>
            <stop offset="1" stop-color="#AFBAF2"/>
        </linearGradient>
        <linearGradient id="paint11_linear_668_10647" x1="153.75" y1="67.3125" x2="929.541" y2="872.768" gradientUnits="userSpaceOnUse">
            <stop stop-color="#BDB1EF"/>
            <stop offset="1" stop-color="#ABB7F1"/>
        </linearGradient>
        <linearGradient id="paint12_linear_668_10647" x1="164" y1="148.087" x2="850.423" y2="899.36" gradientUnits="userSpaceOnUse">
            <stop stop-color="#7489E6"/>
            <stop offset="1" stop-color="#8F81E6"/>
        </linearGradient>
        <linearGradient id="paint13_linear_668_10647" x1="697" y1="4.62198e-05" x2="-224.971" y2="825.841" gradientUnits="userSpaceOnUse">
            <stop stop-color="#9EADEE"/>
            <stop offset="1" stop-color="#A8A7EB"/>
        </linearGradient>
        <linearGradient id="paint14_linear_668_10647" x1="820" y1="215.4" x2="-88.7031" y2="595.925" gradientUnits="userSpaceOnUse">
            <stop stop-color="#AEA6EE"/>
            <stop offset="1" stop-color="#C6A1EE"/>
        </linearGradient>
        <linearGradient id="paint15_linear_668_10647" x1="0" y1="0" x2="1071.61" y2="917.88" gradientUnits="userSpaceOnUse">
            <stop stop-color="#C3CAF2"/>
            <stop offset="1" stop-color="#DAC4F3"/>
        </linearGradient>
        <linearGradient id="paint16_linear_668_10647" x1="92.25" y1="4.71426e-06" x2="523.15" y2="423.324" gradientUnits="userSpaceOnUse">
            <stop stop-color="#A28DE8"/>
            <stop offset="1" stop-color="#B787EA"/>
        </linearGradient>
        <linearGradient id="paint17_linear_668_10647" x1="-287" y1="673.125" x2="861" y2="673.125" gradientUnits="userSpaceOnUse">
            <stop offset="0.243622" stop-color="white" stop-opacity="0"/>
            <stop offset="0.331858" stop-color="#E1D6F6"/>
            <stop offset="0.871926" stop-color="#E1D6F6"/>
            <stop offset="1" stop-color="white" stop-opacity="0"/>
        </linearGradient>
        <linearGradient id="paint18_linear_668_10647" x1="-287" y1="673.125" x2="861" y2="673.125" gradientUnits="userSpaceOnUse">
            <stop offset="0.243622" stop-color="white" stop-opacity="0"/>
            <stop offset="0.331858" stop-color="#EFE8F8"/>
            <stop offset="0.871926" stop-color="#EFE8FA"/>
            <stop offset="1" stop-color="white" stop-opacity="0"/>
        </linearGradient>
        <linearGradient id="paint19_linear_668_10647" x1="-287" y1="673.125" x2="861" y2="673.125" gradientUnits="userSpaceOnUse">
            <stop offset="0.243622" stop-color="white" stop-opacity="0"/>
            <stop offset="0.331858" stop-color="#EFE8F8"/>
            <stop offset="0.871926" stop-color="#EFE8FA"/>
            <stop offset="1" stop-color="white" stop-opacity="0"/>
        </linearGradient>
        <linearGradient id="paint20_linear_668_10647" x1="-287" y1="673.125" x2="861" y2="673.125" gradientUnits="userSpaceOnUse">
            <stop offset="0.243622" stop-color="white" stop-opacity="0"/>
            <stop offset="0.331858" stop-color="#EFE8F8"/>
            <stop offset="0.871926" stop-color="#EFE8FA"/>
            <stop offset="1" stop-color="white" stop-opacity="0"/>
        </linearGradient>
        <linearGradient id="paint21_linear_668_10647" x1="-287" y1="673.125" x2="861" y2="673.125" gradientUnits="userSpaceOnUse">
            <stop offset="0.243622" stop-color="white" stop-opacity="0"/>
            <stop offset="0.331858" stop-color="#D1C1F2"/>
            <stop offset="0.891889" stop-color="#D1C1F2"/>
            <stop offset="1" stop-color="white" stop-opacity="0"/>
        </linearGradient>
        <linearGradient id="paint22_linear_668_10647" x1="-287" y1="673.125" x2="861" y2="673.125" gradientUnits="userSpaceOnUse">
            <stop offset="0.243622" stop-color="white" stop-opacity="0"/>
            <stop offset="0.331858" stop-color="#F1EDFB"/>
            <stop offset="0.891889" stop-color="#F1EDFB"/>
            <stop offset="1" stop-color="white" stop-opacity="0"/>
        </linearGradient>
        <linearGradient id="paint23_linear_668_10647" x1="-287" y1="673.125" x2="861" y2="673.125" gradientUnits="userSpaceOnUse">
            <stop offset="0.243622" stop-color="white" stop-opacity="0"/>
            <stop offset="0.331858" stop-color="#EAE2F9"/>
            <stop offset="0.871926" stop-color="#E8E3FA"/>
            <stop offset="1" stop-color="white" stop-opacity="0"/>
        </linearGradient>
        <linearGradient id="paint24_linear_668_10647" x1="-287" y1="673.125" x2="861" y2="673.125" gradientUnits="userSpaceOnUse">
            <stop offset="0.243622" stop-color="white" stop-opacity="0"/>
            <stop offset="0.331858" stop-color="#EAE2F9"/>
            <stop offset="0.871926" stop-color="#E8E3FA"/>
            <stop offset="1" stop-color="white" stop-opacity="0"/>
        </linearGradient>
        <linearGradient id="paint25_linear_668_10647" x1="-287" y1="673.125" x2="861" y2="673.125" gradientUnits="userSpaceOnUse">
            <stop offset="0.243622" stop-color="white" stop-opacity="0"/>
            <stop offset="0.331858" stop-color="#DFD4F6"/>
            <stop offset="0.871926" stop-color="#DFD4F6"/>
            <stop offset="1" stop-color="white" stop-opacity="0"/>
        </linearGradient>
        <linearGradient id="paint26_linear_668_10647" x1="164" y1="-67.3125" x2="886.131" y2="906.313" gradientUnits="userSpaceOnUse">
            <stop stop-color="#A979E5"/>
            <stop offset="1" stop-color="#8086E6"/>
        </linearGradient>
        <linearGradient id="paint27_linear_668_10647" x1="697" y1="4.62198e-05" x2="-224.971" y2="825.841" gradientUnits="userSpaceOnUse">
            <stop stop-color="#C6A1EE"/>
            <stop offset="1" stop-color="#A8A7EB"/>
        </linearGradient>
        <linearGradient id="paint28_linear_668_10647" x1="820" y1="215.4" x2="-88.7031" y2="595.925" gradientUnits="userSpaceOnUse">
            <stop stop-color="#ACA7EC"/>
            <stop offset="1" stop-color="#A58DE9"/>
        </linearGradient>
        <linearGradient id="paint29_linear_668_10647" x1="0" y1="0" x2="1071.61" y2="917.88" gradientUnits="userSpaceOnUse">
            <stop stop-color="#C3CAF2"/>
            <stop offset="1" stop-color="#DAC4F3"/>
        </linearGradient>
        <linearGradient id="paint30_linear_668_10647" x1="92.25" y1="-3.63098e-06" x2="794.408" y2="774.632" gradientUnits="userSpaceOnUse">
            <stop stop-color="#8A94E9"/>
            <stop offset="1" stop-color="#8596E8"/>
        </linearGradient>
        <linearGradient id="paint31_linear_668_10647" x1="-287" y1="673.125" x2="861" y2="673.125" gradientUnits="userSpaceOnUse">
            <stop offset="0.243622" stop-color="white" stop-opacity="0"/>
            <stop offset="0.331858" stop-color="#F0ECFB"/>
            <stop offset="0.871926" stop-color="#F0ECFB"/>
            <stop offset="1" stop-color="white" stop-opacity="0"/>
        </linearGradient>
        <linearGradient id="paint32_linear_668_10647" x1="-287" y1="673.125" x2="861" y2="673.125" gradientUnits="userSpaceOnUse">
            <stop offset="0.243622" stop-color="white" stop-opacity="0"/>
            <stop offset="0.331858" stop-color="#F0ECFB"/>
            <stop offset="0.871926" stop-color="#F0ECFB"/>
            <stop offset="1" stop-color="white" stop-opacity="0"/>
        </linearGradient>
        <linearGradient id="paint33_linear_668_10647" x1="-287" y1="673.125" x2="861" y2="673.125" gradientUnits="userSpaceOnUse">
            <stop offset="0.243622" stop-color="white" stop-opacity="0"/>
            <stop offset="0.331858" stop-color="#F0ECFB"/>
            <stop offset="0.871926" stop-color="#F0ECFB"/>
            <stop offset="1" stop-color="white" stop-opacity="0"/>
        </linearGradient>
        <linearGradient id="paint34_linear_668_10647" x1="164" y1="-67.3125" x2="886.131" y2="906.313" gradientUnits="userSpaceOnUse">
            <stop stop-color="#7C86E7"/>
            <stop offset="1" stop-color="#9D7CE5"/>
        </linearGradient>
        <linearGradient id="paint35_linear_668_10647" x1="697" y1="4.62198e-05" x2="-224.971" y2="825.841" gradientUnits="userSpaceOnUse">
            <stop stop-color="#9FABEE"/>
            <stop offset="1" stop-color="#B6A6EC"/>
        </linearGradient>
        <linearGradient id="paint36_linear_668_10647" x1="820" y1="215.4" x2="-88.7031" y2="595.925" gradientUnits="userSpaceOnUse">
            <stop stop-color="#BAA4ED"/>
            <stop offset="1" stop-color="#C6A1EE"/>
        </linearGradient>
        <linearGradient id="paint37_linear_668_10647" x1="0" y1="0" x2="1071.61" y2="917.88" gradientUnits="userSpaceOnUse">
            <stop stop-color="#CAC9F5"/>
            <stop offset="1" stop-color="#DAC4F3"/>
        </linearGradient>
        <linearGradient id="paint38_linear_668_10647" x1="92.25" y1="-3.63098e-06" x2="794.408" y2="774.632" gradientUnits="userSpaceOnUse">
            <stop stop-color="#AD8BE9"/>
            <stop offset="1" stop-color="#B787EA"/>
        </linearGradient>
        <linearGradient id="paint39_linear_668_10647" x1="-287" y1="673.125" x2="861" y2="673.125" gradientUnits="userSpaceOnUse">
            <stop stop-color="white" stop-opacity="0"/>
            <stop offset="0.336255" stop-color="#E3DAF7"/>
            <stop offset="0.871926" stop-color="#E2D9F6"/>
            <stop offset="1" stop-color="white" stop-opacity="0"/>
        </linearGradient>
        <linearGradient id="paint40_linear_668_10647" x1="-287" y1="673.125" x2="861" y2="673.125" gradientUnits="userSpaceOnUse">
            <stop offset="0.243622" stop-color="white" stop-opacity="0"/>
            <stop offset="0.331858" stop-color="#DCD0F4"/>
            <stop offset="0.871926" stop-color="#DCD0F4"/>
            <stop offset="1" stop-color="white" stop-opacity="0"/>
        </linearGradient>
        <linearGradient id="paint41_linear_668_10647" x1="92.25" y1="4.71426e-06" x2="523.15" y2="423.324" gradientUnits="userSpaceOnUse">
            <stop stop-color="#A28DE8"/>
            <stop offset="1" stop-color="#B787EA"/>
        </linearGradient>
        <linearGradient id="paint42_linear_668_10647" x1="123" y1="-7.74343e-06" x2="868.565" y2="890.437" gradientUnits="userSpaceOnUse">
            <stop stop-color="#DAC7F5"/>
            <stop offset="1" stop-color="#C8CBF4"/>
        </linearGradient>
        <linearGradient id="paint43_linear_668_10647" x1="174.25" y1="9.86735e-06" x2="830.194" y2="1435.83" gradientUnits="userSpaceOnUse">
            <stop stop-color="#BB95EC"/>
            <stop offset="1" stop-color="#A2A0EF"/>
        </linearGradient>
        <linearGradient id="paint44_linear_668_10647" x1="1076.25" y1="-780.825" x2="-593.613" y2="816.294" gradientUnits="userSpaceOnUse">
            <stop stop-color="#C3A2F6"/>
            <stop offset="1" stop-color="#959EEB"/>
        </linearGradient>
        <linearGradient id="paint45_linear_668_10647" x1="820" y1="376.95" x2="-145.541" y2="630.164" gradientUnits="userSpaceOnUse">
            <stop stop-color="#BE93EC"/>
            <stop offset="1" stop-color="#A899EA"/>
        </linearGradient>
        <linearGradient id="paint46_linear_668_10647" x1="820" y1="538.5" x2="-20.7877" y2="698.538" gradientUnits="userSpaceOnUse">
            <stop stop-color="#A4A0EF"/>
            <stop offset="1" stop-color="#8896E3"/>
        </linearGradient>
        <linearGradient id="paint47_linear_668_10647" x1="133.25" y1="-2.45844e-05" x2="900.664" y2="881.946" gradientUnits="userSpaceOnUse">
            <stop stop-color="#888CEB"/>
            <stop offset="1" stop-color="#8297EA"/>
        </linearGradient>
        <linearGradient id="paint48_linear_668_10647" x1="820" y1="309.637" x2="-231.836" y2="680.553" gradientUnits="userSpaceOnUse">
            <stop stop-color="#B197EB"/>
            <stop offset="1" stop-color="#8891F0"/>
        </linearGradient>
        <linearGradient id="paint49_linear_668_10647" x1="553.5" y1="403.875" x2="-205.57" y2="745.383" gradientUnits="userSpaceOnUse">
            <stop stop-color="#8D98E2"/>
            <stop offset="1" stop-color="#6F86E3"/>
        </linearGradient>
        <linearGradient id="paint50_linear_668_10647" x1="830.25" y1="1023.15" x2="-208.558" y2="459.505" gradientUnits="userSpaceOnUse">
            <stop stop-color="#8E99E2"/>
            <stop offset="1" stop-color="#8496EB"/>
        </linearGradient>
        <linearGradient id="paint51_linear_668_10647" x1="0" y1="0" x2="1071.61" y2="917.88" gradientUnits="userSpaceOnUse">
            <stop stop-color="#C5C3F4"/>
            <stop offset="1" stop-color="#BDC5F3"/>
        </linearGradient>
        <linearGradient id="paint52_linear_668_10647" x1="92.25" y1="1.64498e-05" x2="933.561" y2="854.07" gradientUnits="userSpaceOnUse">
            <stop stop-color="#B6B8F1"/>
            <stop offset="1" stop-color="#AFBAF2"/>
        </linearGradient>
        <linearGradient id="paint53_linear_668_10647" x1="153.75" y1="67.3125" x2="929.541" y2="872.768" gradientUnits="userSpaceOnUse">
            <stop stop-color="#BDB1EF"/>
            <stop offset="1" stop-color="#ABB7F1"/>
        </linearGradient>
        <linearGradient id="paint54_linear_668_10647" x1="123" y1="-7.74343e-06" x2="868.565" y2="890.437" gradientUnits="userSpaceOnUse">
            <stop stop-color="#B486E8"/>
            <stop offset="1" stop-color="#8F91E8"/>
        </linearGradient>
        <linearGradient id="paint55_linear_668_10647" x1="174.25" y1="1.39278e-06" x2="850.735" y2="917.602" gradientUnits="userSpaceOnUse">
            <stop stop-color="#D6BBF2"/>
            <stop offset="1" stop-color="#D3BCF4"/>
        </linearGradient>
        <linearGradient id="paint56_linear_668_10647" x1="683.333" y1="-256.429" x2="-483.575" y2="958.542" gradientUnits="userSpaceOnUse">
            <stop stop-color="#D6BBF2"/>
            <stop offset="1" stop-color="#C7AFF1"/>
        </linearGradient>
        <linearGradient id="paint57_linear_668_10647" x1="820" y1="376.95" x2="-42.4698" y2="616.163" gradientUnits="userSpaceOnUse">
            <stop stop-color="#D6BBF2"/>
            <stop offset="1" stop-color="#C3C1F3"/>
        </linearGradient>
        <linearGradient id="paint58_linear_668_10647" x1="634.524" y1="-6.38758e-05" x2="265.85" y2="1025.16" gradientUnits="userSpaceOnUse">
            <stop stop-color="#858DE8"/>
            <stop offset="1" stop-color="#7D8EE3"/>
        </linearGradient>
        <linearGradient id="paint59_linear_668_10647" x1="133.25" y1="-2.45844e-05" x2="900.664" y2="881.946" gradientUnits="userSpaceOnUse">
            <stop stop-color="#B9C4F2"/>
            <stop offset="1" stop-color="#B8C4F4"/>
        </linearGradient>
        <linearGradient id="paint60_linear_668_10647" x1="820" y1="309.637" x2="-231.836" y2="680.553" gradientUnits="userSpaceOnUse">
            <stop stop-color="#C9B5F0"/>
            <stop offset="1" stop-color="#BBC3F2"/>
        </linearGradient>
        <linearGradient id="paint61_linear_668_10647" x1="553.5" y1="403.875" x2="-205.57" y2="745.383" gradientUnits="userSpaceOnUse">
            <stop stop-color="#8D98E2"/>
            <stop offset="1" stop-color="#6F86E3"/>
        </linearGradient>
        <linearGradient id="paint62_linear_668_10647" x1="527.143" y1="1077" x2="73.7929" y2="77.2004" gradientUnits="userSpaceOnUse">
            <stop stop-color="#C0C2F3"/>
            <stop offset="1" stop-color="#C1C1F3"/>
        </linearGradient>
        <linearGradient id="paint63_linear_668_10647" x1="0" y1="0" x2="1071.61" y2="917.88" gradientUnits="userSpaceOnUse">
            <stop stop-color="#C5C3F4"/>
            <stop offset="1" stop-color="#BDC5F3"/>
        </linearGradient>
        <linearGradient id="paint64_linear_668_10647" x1="92.25" y1="1.64498e-05" x2="933.561" y2="854.07" gradientUnits="userSpaceOnUse">
            <stop stop-color="#B6B8F1"/>
            <stop offset="1" stop-color="#AFBAF2"/>
        </linearGradient>
        <linearGradient id="paint65_linear_668_10647" x1="153.75" y1="67.3125" x2="929.541" y2="872.768" gradientUnits="userSpaceOnUse">
            <stop stop-color="#948FE9"/>
            <stop offset="1" stop-color="#7289E6"/>
        </linearGradient>
    </defs>
</svg>
